<svg width="33" height="32" viewBox="0 0 33 32" fill="none" xmlns="http://www.w3.org/2000/svg">
<path d="M26.57 5.14998H26.47C26.12 5.14998 25.77 5.14998 25.42 5.14998V3.99998C25.42 2.29998 24.02 0.849976 22.27 0.849976H7.17002C5.42002 0.899976 4.02002 2.29998 4.02002 3.99998V21.1C4.02002 21.75 4.27002 22.35 4.72002 22.85L12.02 30.35C12.47 30.85 13.12 31.1 13.82 31.1H22.97C24.32 31.1 25.47 30 25.47 28.6V28.15L27.87 23.3C27.97 23.15 27.97 23 27.97 22.8L28.02 6.59998C28.02 5.84998 27.37 5.19998 26.57 5.14998ZM25.77 9.19998H22.97V7.34998C23.92 7.34998 24.82 7.34998 25.77 7.34998V9.19998ZM11.92 27L7.82002 22.8H11.92V27ZM22.97 28.9H14.17V21.95C14.17 21.15 13.52 20.55 12.77 20.55H6.27002V3.99998C6.27002 3.49998 6.67002 3.09998 7.17002 3.09998H22.37C22.87 3.09998 23.27 3.49998 23.27 3.99998V5.09998C22.92 5.09998 22.62 5.09998 22.27 5.09998C21.42 5.09998 20.77 5.74998 20.77 6.54998L20.72 22.8C20.72 23 20.77 23.15 20.82 23.3L23.27 28.15V28.6C23.22 28.75 23.12 28.9 22.97 28.9ZM24.32 25.4L22.92 22.55V11.45H25.72V22.55L24.32 25.4Z" fill="url(#paint0_linear_38_97)"/>
<defs>
<linearGradient id="paint0_linear_38_97" x1="16.02" y1="0.849976" x2="16.02" y2="37.5" gradientUnits="userSpaceOnUse">
<stop stop-color="white"/>
<stop offset="0.744792" stop-color="white" stop-opacity="0.364583"/>
<stop offset="1" stop-color="white" stop-opacity="0"/>
</linearGradient>
</defs>
</svg>
