<svg width="33" height="32" viewBox="0 0 33 32" fill="none" xmlns="http://www.w3.org/2000/svg">
<g clip-path="url(#clip0_38_106)">
<path d="M4.22079 14.5001C4.37079 14.5001 4.57079 14.4501 4.72079 14.4001L10.2708 12.4501C10.8708 12.2501 11.1708 11.6001 10.9708 11.0001C10.7708 10.4001 10.1208 10.1001 9.52079 10.3001L6.07079 11.5001C7.72079 7.20005 11.9208 4.30005 16.7208 4.30005C21.9708 4.30005 26.5208 7.80005 27.8208 12.8001C27.9708 13.4001 28.5708 13.7501 29.1708 13.6001C29.7708 13.4501 30.1208 12.8501 29.9708 12.2501C28.4208 6.25005 22.9708 2.05005 16.6708 2.05005C11.0708 2.05005 6.12079 5.35005 4.07079 10.3001L3.02079 7.30005C2.82079 6.70005 2.17079 6.40005 1.57079 6.60005C0.970787 6.80005 0.670786 7.45005 0.870786 8.05005L2.77079 13.5001C3.07079 14.1501 3.62079 14.5001 4.22079 14.5001Z" fill="url(#paint0_linear_38_106)"/>
<path d="M31.0704 24.85L29.0204 19.5C28.8704 19.15 28.6204 18.85 28.2704 18.7C27.9204 18.55 27.5204 18.55 27.1704 18.7L21.6704 20.8C21.0704 21 20.8204 21.65 21.0204 22.25C21.2204 22.85 21.8704 23.1 22.4704 22.9L25.9204 21.6C23.9204 25.25 20.0204 27.65 15.6704 27.65C10.7204 27.65 6.3704 24.55 4.8204 19.95C4.6204 19.35 3.9704 19.05 3.4204 19.25C2.8204 19.45 2.5204 20.1 2.7204 20.65C4.5704 26.15 9.7704 29.85 15.6704 29.85C20.8204 29.85 25.4704 27 27.8204 22.6L28.9704 25.65C29.1204 26.1 29.5704 26.35 30.0204 26.35C30.1704 26.35 30.2704 26.35 30.4204 26.25C31.0204 26.1 31.2704 25.45 31.0704 24.85Z" fill="url(#paint1_linear_38_106)"/>
</g>
<defs>
<linearGradient id="paint0_linear_38_106" x1="15.4072" y1="2.05005" x2="15.4072" y2="17.1341" gradientUnits="userSpaceOnUse">
<stop stop-color="white"/>
<stop offset="0.744792" stop-color="white" stop-opacity="0.364583"/>
<stop offset="1" stop-color="white" stop-opacity="0"/>
</linearGradient>
<linearGradient id="paint1_linear_38_106" x1="16.8984" y1="18.5875" x2="16.8984" y2="32.2328" gradientUnits="userSpaceOnUse">
<stop stop-color="white"/>
<stop offset="0.744792" stop-color="white" stop-opacity="0.364583"/>
<stop offset="1" stop-color="white" stop-opacity="0"/>
</linearGradient>
<clipPath id="clip0_38_106">
<rect width="32" height="32" fill="white" transform="translate(0.0200195)"/>
</clipPath>
</defs>
</svg>
