<svg width="33" height="32" viewBox="0 0 33 32" fill="none" xmlns="http://www.w3.org/2000/svg">
<path d="M9.35303 11C8.80075 11 8.35303 11.4477 8.35303 12C8.35303 12.5523 8.80075 13 9.35303 13H16.0197C16.5719 13 17.0197 12.5523 17.0197 12C17.0197 11.4477 16.5719 11 16.0197 11H9.35303Z" fill="url(#paint0_linear_38_109)"/>
<path d="M9.35303 16.3333C8.80075 16.3333 8.35303 16.7811 8.35303 17.3333C8.35303 17.8856 8.80075 18.3333 9.35303 18.3333H20.0197C20.5719 18.3333 21.0197 17.8856 21.0197 17.3333C21.0197 16.7811 20.5719 16.3333 20.0197 16.3333H9.35303Z" fill="url(#paint1_linear_38_109)"/>
<path d="M14.687 1.66663C7.50731 1.66663 1.68701 7.48692 1.68701 14.6667C1.68701 21.8464 7.50731 27.6667 14.687 27.6667C17.9165 27.6667 20.8723 26.488 23.1451 24.5391L28.6466 30.0404C29.0371 30.4309 29.6702 30.4309 30.0607 30.0404C30.4513 29.6499 30.4513 29.0168 30.0607 28.6263L24.5594 23.1248C26.5083 20.852 27.687 17.8961 27.687 14.6667C27.687 7.48692 21.8667 1.66663 14.687 1.66663ZM3.68701 14.6667C3.68701 8.59149 8.61188 3.66663 14.687 3.66663C20.7621 3.66663 25.687 8.59149 25.687 14.6667C25.687 17.7045 24.4569 20.4532 22.4651 22.4448C20.4735 24.4365 17.7249 25.6667 14.687 25.6667C8.61188 25.6667 3.68701 20.7417 3.68701 14.6667Z" fill="url(#paint2_linear_38_109)"/>
<defs>
<linearGradient id="paint0_linear_38_109" x1="12.6863" y1="11" x2="12.6863" y2="13.4231" gradientUnits="userSpaceOnUse">
<stop stop-color="white"/>
<stop offset="0.744792" stop-color="white" stop-opacity="0.364583"/>
<stop offset="1" stop-color="white" stop-opacity="0"/>
</linearGradient>
<linearGradient id="paint1_linear_38_109" x1="14.6863" y1="16.3333" x2="14.6863" y2="18.7565" gradientUnits="userSpaceOnUse">
<stop stop-color="white"/>
<stop offset="0.744792" stop-color="white" stop-opacity="0.364583"/>
<stop offset="1" stop-color="white" stop-opacity="0"/>
</linearGradient>
<linearGradient id="paint2_linear_38_109" x1="16.0203" y1="1.66663" x2="16.0203" y2="36.3983" gradientUnits="userSpaceOnUse">
<stop stop-color="white"/>
<stop offset="0.744792" stop-color="white" stop-opacity="0.364583"/>
<stop offset="1" stop-color="white" stop-opacity="0"/>
</linearGradient>
</defs>
</svg>
