<svg width="29" height="28" viewBox="0 0 29 28" fill="none" xmlns="http://www.w3.org/2000/svg">
<g clip-path="url(#clip0_38_160)">
<path d="M5.09451 3.89385H22.9007C23.4257 3.89385 23.907 3.45635 23.907 2.8876C23.907 2.31885 23.4695 1.88135 22.9007 1.88135H5.09451C4.56951 1.88135 4.08826 2.31885 4.08826 2.8876C4.08826 3.45635 4.56951 3.89385 5.09451 3.89385Z" fill="url(#paint0_linear_38_160)"/>
<path d="M3.43252 11.2874H24.6075C25.1325 11.2874 25.6138 10.8499 25.6138 10.2812C25.6138 9.7124 25.1763 9.2749 24.6075 9.2749H3.43252C2.90752 9.2749 2.42627 9.7124 2.42627 10.2812C2.42627 10.8499 2.90752 11.2874 3.43252 11.2874Z" fill="url(#paint1_linear_38_160)"/>
<path d="M6.80093 16.7124C6.27593 16.7124 5.79468 17.1499 5.79468 17.7187C5.79468 18.2874 6.23218 18.7249 6.80093 18.7249H21.2822C21.8072 18.7249 22.2884 18.2874 22.2884 17.7187C22.2884 17.1499 21.8509 16.7124 21.2822 16.7124H6.80093Z" fill="url(#paint2_linear_38_160)"/>
<path d="M26.2697 24.1062H1.76968C1.24468 24.1062 0.763428 24.5438 0.763428 25.1125C0.763428 25.6813 1.20093 26.1187 1.76968 26.1187H26.2697C26.7947 26.1187 27.2759 25.6813 27.2759 25.1125C27.2759 24.5438 26.7947 24.1062 26.2697 24.1062Z" fill="url(#paint3_linear_38_160)"/>
</g>
<defs>
<linearGradient id="paint0_linear_38_160" x1="13.9976" y1="1.88135" x2="13.9976" y2="4.31964" gradientUnits="userSpaceOnUse">
<stop stop-color="white"/>
<stop offset="0.744792" stop-color="white" stop-opacity="0.364583"/>
<stop offset="1" stop-color="white" stop-opacity="0"/>
</linearGradient>
<linearGradient id="paint1_linear_38_160" x1="14.02" y1="9.2749" x2="14.02" y2="11.7132" gradientUnits="userSpaceOnUse">
<stop stop-color="white"/>
<stop offset="0.744792" stop-color="white" stop-opacity="0.364583"/>
<stop offset="1" stop-color="white" stop-opacity="0"/>
</linearGradient>
<linearGradient id="paint2_linear_38_160" x1="14.0415" y1="16.7124" x2="14.0415" y2="19.1507" gradientUnits="userSpaceOnUse">
<stop stop-color="white"/>
<stop offset="0.744792" stop-color="white" stop-opacity="0.364583"/>
<stop offset="1" stop-color="white" stop-opacity="0"/>
</linearGradient>
<linearGradient id="paint3_linear_38_160" x1="14.0197" y1="24.1062" x2="14.0197" y2="26.5446" gradientUnits="userSpaceOnUse">
<stop stop-color="white"/>
<stop offset="0.744792" stop-color="white" stop-opacity="0.364583"/>
<stop offset="1" stop-color="white" stop-opacity="0"/>
</linearGradient>
<clipPath id="clip0_38_160">
<rect width="28" height="28" fill="white" transform="translate(0.0200195)"/>
</clipPath>
</defs>
</svg>
