<svg width="368" height="674" viewBox="0 0 368 674" fill="none" xmlns="http://www.w3.org/2000/svg">
<path d="M0 113C0 98.6406 11.6406 87 26 87H91V587H26C11.6406 587 0 575.359 0 561V113Z" fill="#171818"/>
<path d="M43 67C43 52.6406 54.6406 41 69 41H134V640H69C54.6406 640 43 628.359 43 614V67Z" fill="#131414"/>
<path d="M87 20C87 8.9543 95.9543 0 107 0H368V674H107C95.9543 674 87 665.046 87 654V20Z" fill="#151718"/>
<rect x="88" y="130" width="4" height="32" fill="#2B65FB"/>
<path d="M145.429 144.286H138.571C138.098 144.286 137.714 144.669 137.714 145.143V155.429C137.714 155.902 138.098 156.286 138.571 156.286H145.429C145.902 156.286 146.286 155.902 146.286 155.429V145.143C146.286 144.669 145.902 144.286 145.429 144.286Z" stroke="white" stroke-width="1.5" stroke-linecap="round" stroke-linejoin="round"/>
<path d="M145.429 135H138.571C138.098 135 137.714 135.384 137.714 135.857V139.303C137.714 139.776 138.098 140.16 138.571 140.16H145.429C145.902 140.16 146.286 139.776 146.286 139.303V135.857C146.286 135.384 145.902 135 145.429 135Z" stroke="white" stroke-width="1.5" stroke-linecap="round" stroke-linejoin="round"/>
<path d="M133.714 135H126.857C126.384 135 126 135.384 126 135.857V146.143C126 146.616 126.384 147 126.857 147H133.714C134.188 147 134.571 146.616 134.571 146.143V135.857C134.571 135.384 134.188 135 133.714 135Z" stroke="white" stroke-width="1.5" stroke-linecap="round" stroke-linejoin="round"/>
<path d="M133.714 151.126H126.857C126.384 151.126 126 151.509 126 151.983V155.429C126 155.902 126.384 156.286 126.857 156.286H133.714C134.188 156.286 134.571 155.902 134.571 155.429V151.983C134.571 151.509 134.188 151.126 133.714 151.126Z" stroke="white" stroke-width="1.5" stroke-linecap="round" stroke-linejoin="round"/>
<path d="M161.328 152V140.08H165.232C166.437 140.08 167.488 140.325 168.384 140.816C169.28 141.307 169.973 142 170.464 142.896C170.955 143.781 171.2 144.827 171.2 146.032C171.2 147.227 170.955 148.272 170.464 149.168C169.973 150.064 169.28 150.763 168.384 151.264C167.488 151.755 166.437 152 165.232 152H161.328ZM162.896 150.56H165.248C166.133 150.56 166.896 150.373 167.536 150C168.187 149.627 168.688 149.104 169.04 148.432C169.392 147.749 169.568 146.949 169.568 146.032C169.568 145.104 169.387 144.304 169.024 143.632C168.672 142.96 168.171 142.443 167.52 142.08C166.88 141.707 166.123 141.52 165.248 141.52H162.896V150.56ZM175.43 152.192C174.865 152.192 174.363 152.091 173.926 151.888C173.499 151.675 173.163 151.387 172.918 151.024C172.673 150.651 172.55 150.224 172.55 149.744C172.55 149.285 172.646 148.875 172.838 148.512C173.041 148.139 173.35 147.824 173.766 147.568C174.193 147.312 174.726 147.131 175.366 147.024L178.566 146.496V147.744L175.702 148.224C175.147 148.32 174.742 148.496 174.486 148.752C174.241 149.008 174.118 149.323 174.118 149.696C174.118 150.048 174.257 150.341 174.534 150.576C174.822 150.811 175.179 150.928 175.606 150.928C176.15 150.928 176.619 150.816 177.014 150.592C177.419 150.357 177.734 150.043 177.958 149.648C178.193 149.253 178.31 148.816 178.31 148.336V146.144C178.31 145.675 178.134 145.296 177.782 145.008C177.441 144.709 176.987 144.56 176.422 144.56C175.931 144.56 175.494 144.688 175.11 144.944C174.737 145.189 174.459 145.52 174.278 145.936L172.982 145.264C173.142 144.869 173.398 144.517 173.75 144.208C174.102 143.888 174.513 143.637 174.982 143.456C175.451 143.275 175.942 143.184 176.454 143.184C177.115 143.184 177.697 143.312 178.198 143.568C178.699 143.813 179.089 144.16 179.366 144.608C179.654 145.045 179.798 145.557 179.798 146.144V152H178.342V150.368L178.614 150.464C178.433 150.805 178.187 151.104 177.878 151.36C177.569 151.616 177.206 151.819 176.79 151.968C176.374 152.117 175.921 152.192 175.43 152.192ZM185.193 152.192C184.329 152.192 183.577 151.979 182.937 151.552C182.297 151.125 181.844 150.549 181.577 149.824L182.761 149.248C183.006 149.76 183.342 150.165 183.769 150.464C184.196 150.763 184.67 150.912 185.193 150.912C185.662 150.912 186.052 150.8 186.361 150.576C186.67 150.352 186.825 150.059 186.825 149.696C186.825 149.44 186.75 149.237 186.601 149.088C186.462 148.928 186.292 148.805 186.089 148.72C185.886 148.624 185.7 148.555 185.529 148.512L184.233 148.144C183.454 147.92 182.884 147.6 182.521 147.184C182.169 146.768 181.993 146.283 181.993 145.728C181.993 145.216 182.121 144.773 182.377 144.4C182.644 144.016 183.001 143.717 183.449 143.504C183.908 143.291 184.42 143.184 184.985 143.184C185.742 143.184 186.42 143.376 187.017 143.76C187.625 144.144 188.057 144.683 188.313 145.376L187.097 145.936C186.905 145.488 186.617 145.136 186.233 144.88C185.849 144.613 185.417 144.48 184.937 144.48C184.5 144.48 184.153 144.592 183.897 144.816C183.641 145.029 183.513 145.301 183.513 145.632C183.513 145.877 183.577 146.08 183.705 146.24C183.833 146.389 183.988 146.507 184.169 146.592C184.35 146.667 184.526 146.731 184.697 146.784L186.105 147.2C186.809 147.403 187.353 147.717 187.737 148.144C188.132 148.571 188.329 149.083 188.329 149.68C188.329 150.16 188.196 150.592 187.929 150.976C187.662 151.36 187.294 151.659 186.825 151.872C186.356 152.085 185.812 152.192 185.193 152.192ZM190.277 152V139.888H191.765V145.056L191.493 144.912C191.706 144.368 192.048 143.947 192.517 143.648C192.997 143.339 193.557 143.184 194.197 143.184C194.816 143.184 195.365 143.323 195.845 143.6C196.336 143.877 196.72 144.261 196.997 144.752C197.285 145.243 197.429 145.797 197.429 146.416V152H195.925V146.896C195.925 146.416 195.834 146.011 195.653 145.68C195.482 145.349 195.242 145.093 194.933 144.912C194.624 144.72 194.266 144.624 193.861 144.624C193.466 144.624 193.109 144.72 192.789 144.912C192.469 145.093 192.218 145.355 192.037 145.696C191.856 146.027 191.765 146.427 191.765 146.896V152H190.277ZM204.022 152.192C203.329 152.192 202.694 152.037 202.118 151.728C201.553 151.419 201.116 150.981 200.806 150.416L201.014 150.16V152H199.558V139.888H201.046V145.232L200.822 144.864C201.142 144.352 201.58 143.947 202.134 143.648C202.689 143.339 203.324 143.184 204.038 143.184C204.849 143.184 205.574 143.381 206.214 143.776C206.865 144.171 207.377 144.709 207.75 145.392C208.124 146.064 208.31 146.832 208.31 147.696C208.31 148.539 208.124 149.301 207.75 149.984C207.377 150.667 206.865 151.205 206.214 151.6C205.574 151.995 204.844 152.192 204.022 152.192ZM203.91 150.752C204.454 150.752 204.94 150.619 205.366 150.352C205.793 150.085 206.124 149.723 206.358 149.264C206.604 148.795 206.726 148.272 206.726 147.696C206.726 147.099 206.604 146.576 206.358 146.128C206.124 145.669 205.793 145.307 205.366 145.04C204.94 144.763 204.454 144.624 203.91 144.624C203.366 144.624 202.876 144.757 202.438 145.024C202.012 145.291 201.67 145.659 201.414 146.128C201.169 146.587 201.046 147.109 201.046 147.696C201.046 148.272 201.169 148.795 201.414 149.264C201.67 149.723 202.012 150.085 202.438 150.352C202.876 150.619 203.366 150.752 203.91 150.752ZM214.357 152.192C213.525 152.192 212.773 152 212.101 151.616C211.429 151.221 210.896 150.683 210.501 150C210.107 149.317 209.909 148.544 209.909 147.68C209.909 146.816 210.101 146.048 210.485 145.376C210.88 144.704 211.413 144.171 212.085 143.776C212.757 143.381 213.515 143.184 214.357 143.184C215.189 143.184 215.941 143.381 216.613 143.776C217.285 144.16 217.813 144.688 218.197 145.36C218.592 146.032 218.789 146.805 218.789 147.68C218.789 148.555 218.587 149.333 218.181 150.016C217.776 150.688 217.237 151.221 216.565 151.616C215.904 152 215.168 152.192 214.357 152.192ZM214.357 150.752C214.891 150.752 215.371 150.619 215.797 150.352C216.235 150.085 216.576 149.717 216.821 149.248C217.077 148.779 217.205 148.256 217.205 147.68C217.205 147.093 217.077 146.576 216.821 146.128C216.576 145.669 216.235 145.307 215.797 145.04C215.371 144.763 214.891 144.624 214.357 144.624C213.813 144.624 213.323 144.763 212.885 145.04C212.459 145.307 212.117 145.669 211.861 146.128C211.605 146.576 211.477 147.093 211.477 147.68C211.477 148.256 211.605 148.779 211.861 149.248C212.117 149.717 212.459 150.085 212.885 150.352C213.323 150.619 213.813 150.752 214.357 150.752ZM223.258 152.192C222.693 152.192 222.191 152.091 221.754 151.888C221.327 151.675 220.991 151.387 220.746 151.024C220.501 150.651 220.378 150.224 220.378 149.744C220.378 149.285 220.474 148.875 220.666 148.512C220.869 148.139 221.178 147.824 221.594 147.568C222.021 147.312 222.554 147.131 223.194 147.024L226.394 146.496V147.744L223.53 148.224C222.975 148.32 222.57 148.496 222.314 148.752C222.069 149.008 221.946 149.323 221.946 149.696C221.946 150.048 222.085 150.341 222.362 150.576C222.65 150.811 223.007 150.928 223.434 150.928C223.978 150.928 224.447 150.816 224.842 150.592C225.247 150.357 225.562 150.043 225.786 149.648C226.021 149.253 226.138 148.816 226.138 148.336V146.144C226.138 145.675 225.962 145.296 225.61 145.008C225.269 144.709 224.815 144.56 224.25 144.56C223.759 144.56 223.322 144.688 222.938 144.944C222.565 145.189 222.287 145.52 222.106 145.936L220.81 145.264C220.97 144.869 221.226 144.517 221.578 144.208C221.93 143.888 222.341 143.637 222.81 143.456C223.279 143.275 223.77 143.184 224.282 143.184C224.943 143.184 225.525 143.312 226.026 143.568C226.527 143.813 226.917 144.16 227.194 144.608C227.482 145.045 227.626 145.557 227.626 146.144V152H226.17V150.368L226.442 150.464C226.261 150.805 226.015 151.104 225.706 151.36C225.397 151.616 225.034 151.819 224.618 151.968C224.202 152.117 223.749 152.192 223.258 152.192ZM229.933 152V143.376H231.389V144.96L231.229 144.736C231.432 144.245 231.741 143.883 232.157 143.648C232.573 143.403 233.08 143.28 233.677 143.28H234.205V144.688H233.453C232.845 144.688 232.355 144.88 231.981 145.264C231.608 145.637 231.421 146.171 231.421 146.864V152H229.933ZM239.447 152.192C238.636 152.192 237.906 151.995 237.255 151.6C236.615 151.205 236.108 150.667 235.735 149.984C235.362 149.301 235.175 148.539 235.175 147.696C235.175 146.832 235.362 146.064 235.735 145.392C236.108 144.709 236.615 144.171 237.255 143.776C237.906 143.381 238.636 143.184 239.447 143.184C240.162 143.184 240.796 143.339 241.351 143.648C241.906 143.947 242.343 144.352 242.663 144.864L242.423 145.232V139.888H243.927V152H242.471V150.16L242.663 150.416C242.364 150.981 241.927 151.419 241.351 151.728C240.786 152.037 240.151 152.192 239.447 152.192ZM239.575 150.752C240.119 150.752 240.604 150.619 241.031 150.352C241.458 150.085 241.794 149.723 242.039 149.264C242.295 148.795 242.423 148.272 242.423 147.696C242.423 147.109 242.295 146.587 242.039 146.128C241.794 145.659 241.458 145.291 241.031 145.024C240.604 144.757 240.119 144.624 239.575 144.624C239.042 144.624 238.556 144.763 238.119 145.04C237.692 145.307 237.356 145.669 237.111 146.128C236.866 146.576 236.743 147.099 236.743 147.696C236.743 148.272 236.866 148.795 237.111 149.264C237.356 149.723 237.692 150.085 238.119 150.352C238.546 150.619 239.031 150.752 239.575 150.752Z" fill="white"/>
<rect x="126.75" y="204.75" width="4.5" height="6.5" stroke="#747475" stroke-width="1.5"/>
<rect x="131.75" y="198.75" width="4.5" height="12.5" stroke="#747475" stroke-width="1.5"/>
<rect x="136.75" y="194.75" width="4.5" height="16.5" stroke="#747475" stroke-width="1.5"/>
<rect x="125" y="211" width="18" height="1" fill="#747475"/>
<path d="M161.328 211V199.08H165.536C166.325 199.08 167.019 199.229 167.616 199.528C168.213 199.827 168.677 200.253 169.008 200.808C169.349 201.363 169.52 202.013 169.52 202.76C169.52 203.603 169.307 204.317 168.88 204.904C168.453 205.491 167.877 205.912 167.152 206.168L169.92 211H168.096L165.184 205.832L166.224 206.44H162.896V211H161.328ZM162.896 205H165.584C166.053 205 166.464 204.909 166.816 204.728C167.168 204.547 167.44 204.285 167.632 203.944C167.835 203.603 167.936 203.208 167.936 202.76C167.936 202.301 167.835 201.907 167.632 201.576C167.44 201.235 167.168 200.973 166.816 200.792C166.464 200.611 166.053 200.52 165.584 200.52H162.896V205ZM175.011 211.192C174.179 211.192 173.437 210.995 172.787 210.6C172.136 210.205 171.624 209.667 171.251 208.984C170.877 208.291 170.691 207.517 170.691 206.664C170.691 205.8 170.872 205.032 171.235 204.36C171.608 203.688 172.109 203.16 172.739 202.776C173.379 202.381 174.093 202.184 174.883 202.184C175.523 202.184 176.088 202.301 176.579 202.536C177.08 202.76 177.501 203.069 177.843 203.464C178.195 203.848 178.461 204.291 178.643 204.792C178.835 205.283 178.931 205.795 178.931 206.328C178.931 206.445 178.92 206.579 178.899 206.728C178.888 206.867 178.872 207 178.851 207.128H171.779V205.848H177.987L177.283 206.424C177.379 205.869 177.325 205.373 177.123 204.936C176.92 204.499 176.621 204.152 176.227 203.896C175.832 203.64 175.384 203.512 174.883 203.512C174.381 203.512 173.923 203.64 173.507 203.896C173.091 204.152 172.765 204.52 172.531 205C172.307 205.469 172.216 206.029 172.259 206.68C172.216 207.309 172.312 207.864 172.547 208.344C172.792 208.813 173.133 209.181 173.571 209.448C174.019 209.704 174.504 209.832 175.027 209.832C175.603 209.832 176.088 209.699 176.483 209.432C176.877 209.165 177.197 208.824 177.443 208.408L178.691 209.048C178.52 209.443 178.253 209.805 177.891 210.136C177.539 210.456 177.117 210.712 176.627 210.904C176.147 211.096 175.608 211.192 175.011 211.192ZM182.855 211L179.895 202.376H181.543L183.895 209.592L183.319 209.576L185.623 202.376H187.031L189.335 209.576L188.759 209.592L191.127 202.376H192.759L189.799 211H188.375L186.103 203.8H186.551L184.279 211H182.855ZM196.305 211.192C195.74 211.192 195.238 211.091 194.801 210.888C194.374 210.675 194.038 210.387 193.793 210.024C193.548 209.651 193.425 209.224 193.425 208.744C193.425 208.285 193.521 207.875 193.713 207.512C193.916 207.139 194.225 206.824 194.641 206.568C195.068 206.312 195.601 206.131 196.241 206.024L199.441 205.496V206.744L196.577 207.224C196.022 207.32 195.617 207.496 195.361 207.752C195.116 208.008 194.993 208.323 194.993 208.696C194.993 209.048 195.132 209.341 195.409 209.576C195.697 209.811 196.054 209.928 196.481 209.928C197.025 209.928 197.494 209.816 197.889 209.592C198.294 209.357 198.609 209.043 198.833 208.648C199.068 208.253 199.185 207.816 199.185 207.336V205.144C199.185 204.675 199.009 204.296 198.657 204.008C198.316 203.709 197.862 203.56 197.297 203.56C196.806 203.56 196.369 203.688 195.985 203.944C195.612 204.189 195.334 204.52 195.153 204.936L193.857 204.264C194.017 203.869 194.273 203.517 194.625 203.208C194.977 202.888 195.388 202.637 195.857 202.456C196.326 202.275 196.817 202.184 197.329 202.184C197.99 202.184 198.572 202.312 199.073 202.568C199.574 202.813 199.964 203.16 200.241 203.608C200.529 204.045 200.673 204.557 200.673 205.144V211H199.217V209.368L199.489 209.464C199.308 209.805 199.062 210.104 198.753 210.36C198.444 210.616 198.081 210.819 197.665 210.968C197.249 211.117 196.796 211.192 196.305 211.192ZM202.98 211V202.376H204.436V203.96L204.276 203.736C204.479 203.245 204.788 202.883 205.204 202.648C205.62 202.403 206.127 202.28 206.724 202.28H207.252V203.688H206.5C205.892 203.688 205.401 203.88 205.028 204.264C204.655 204.637 204.468 205.171 204.468 205.864V211H202.98ZM212.494 211.192C211.683 211.192 210.953 210.995 210.302 210.6C209.662 210.205 209.155 209.667 208.782 208.984C208.409 208.301 208.222 207.539 208.222 206.696C208.222 205.832 208.409 205.064 208.782 204.392C209.155 203.709 209.662 203.171 210.302 202.776C210.953 202.381 211.683 202.184 212.494 202.184C213.209 202.184 213.843 202.339 214.398 202.648C214.953 202.947 215.39 203.352 215.71 203.864L215.47 204.232V198.888H216.974V211H215.518V209.16L215.71 209.416C215.411 209.981 214.974 210.419 214.398 210.728C213.833 211.037 213.198 211.192 212.494 211.192ZM212.622 209.752C213.166 209.752 213.651 209.619 214.078 209.352C214.505 209.085 214.841 208.723 215.086 208.264C215.342 207.795 215.47 207.272 215.47 206.696C215.47 206.109 215.342 205.587 215.086 205.128C214.841 204.659 214.505 204.291 214.078 204.024C213.651 203.757 213.166 203.624 212.622 203.624C212.089 203.624 211.603 203.763 211.166 204.04C210.739 204.307 210.403 204.669 210.158 205.128C209.913 205.576 209.79 206.099 209.79 206.696C209.79 207.272 209.913 207.795 210.158 208.264C210.403 208.723 210.739 209.085 211.166 209.352C211.593 209.619 212.078 209.752 212.622 209.752ZM222.365 211.192C221.501 211.192 220.749 210.979 220.109 210.552C219.469 210.125 219.016 209.549 218.749 208.824L219.933 208.248C220.178 208.76 220.514 209.165 220.941 209.464C221.368 209.763 221.842 209.912 222.365 209.912C222.834 209.912 223.224 209.8 223.533 209.576C223.842 209.352 223.997 209.059 223.997 208.696C223.997 208.44 223.922 208.237 223.773 208.088C223.634 207.928 223.464 207.805 223.261 207.72C223.058 207.624 222.872 207.555 222.701 207.512L221.405 207.144C220.626 206.92 220.056 206.6 219.693 206.184C219.341 205.768 219.165 205.283 219.165 204.728C219.165 204.216 219.293 203.773 219.549 203.4C219.816 203.016 220.173 202.717 220.621 202.504C221.08 202.291 221.592 202.184 222.157 202.184C222.914 202.184 223.592 202.376 224.189 202.76C224.797 203.144 225.229 203.683 225.485 204.376L224.269 204.936C224.077 204.488 223.789 204.136 223.405 203.88C223.021 203.613 222.589 203.48 222.109 203.48C221.672 203.48 221.325 203.592 221.069 203.816C220.813 204.029 220.685 204.301 220.685 204.632C220.685 204.877 220.749 205.08 220.877 205.24C221.005 205.389 221.16 205.507 221.341 205.592C221.522 205.667 221.698 205.731 221.869 205.784L223.277 206.2C223.981 206.403 224.525 206.717 224.909 207.144C225.304 207.571 225.501 208.083 225.501 208.68C225.501 209.16 225.368 209.592 225.101 209.976C224.834 210.36 224.466 210.659 223.997 210.872C223.528 211.085 222.984 211.192 222.365 211.192Z" fill="#747475"/>
<path d="M125.5 259.125C125.5 258.23 125.856 257.371 126.489 256.739C127.121 256.106 127.98 255.75 128.875 255.75H143.125C144.02 255.75 144.879 256.106 145.511 256.739C146.144 257.371 146.5 258.23 146.5 259.125V268.875C146.5 269.77 146.144 270.629 145.511 271.261C144.879 271.894 144.02 272.25 143.125 272.25H128.875C127.98 272.25 127.121 271.894 126.489 271.261C125.856 270.629 125.5 269.77 125.5 268.875V259.125ZM128.875 257.25C128.378 257.25 127.901 257.448 127.549 257.799C127.198 258.151 127 258.628 127 259.125V260.25H145V259.125C145 258.628 144.802 258.151 144.451 257.799C144.099 257.448 143.622 257.25 143.125 257.25H128.875ZM127 268.875C127 269.372 127.198 269.849 127.549 270.201C127.901 270.552 128.378 270.75 128.875 270.75H143.125C143.622 270.75 144.099 270.552 144.451 270.201C144.802 269.849 145 269.372 145 268.875V261.75H127V268.875ZM139.75 266.25H142C142.199 266.25 142.39 266.329 142.53 266.47C142.671 266.61 142.75 266.801 142.75 267C142.75 267.199 142.671 267.39 142.53 267.53C142.39 267.671 142.199 267.75 142 267.75H139.75C139.551 267.75 139.36 267.671 139.22 267.53C139.079 267.39 139 267.199 139 267C139 266.801 139.079 266.61 139.22 266.47C139.36 266.329 139.551 266.25 139.75 266.25Z" fill="#747475"/>
<path d="M161.278 270V258.364H165.426C166.331 258.364 167.081 258.528 167.676 258.858C168.271 259.187 168.716 259.638 169.011 260.21C169.307 260.778 169.455 261.419 169.455 262.131C169.455 262.847 169.305 263.491 169.006 264.062C168.71 264.631 168.263 265.081 167.665 265.415C167.07 265.744 166.322 265.909 165.42 265.909H162.568V264.42H165.261C165.833 264.42 166.297 264.322 166.653 264.125C167.009 263.924 167.271 263.652 167.438 263.307C167.604 262.962 167.688 262.57 167.688 262.131C167.688 261.691 167.604 261.301 167.438 260.96C167.271 260.619 167.008 260.352 166.648 260.159C166.292 259.966 165.822 259.869 165.239 259.869H163.034V270H161.278ZM176.905 266.381V261.273H178.609V270H176.939V268.489H176.848C176.647 268.955 176.325 269.343 175.882 269.653C175.443 269.96 174.895 270.114 174.24 270.114C173.679 270.114 173.183 269.991 172.751 269.744C172.323 269.494 171.986 269.125 171.74 268.636C171.498 268.148 171.376 267.544 171.376 266.824V261.273H173.075V266.619C173.075 267.214 173.24 267.687 173.57 268.04C173.899 268.392 174.327 268.568 174.854 268.568C175.172 268.568 175.488 268.489 175.803 268.33C176.121 268.17 176.384 267.93 176.592 267.608C176.804 267.286 176.909 266.877 176.905 266.381ZM180.892 270V261.273H182.534V262.659H182.625C182.784 262.189 183.064 261.82 183.466 261.551C183.871 261.278 184.33 261.142 184.841 261.142C184.947 261.142 185.072 261.146 185.216 261.153C185.364 261.161 185.479 261.17 185.562 261.182V262.807C185.494 262.788 185.373 262.767 185.199 262.744C185.025 262.718 184.85 262.705 184.676 262.705C184.275 262.705 183.917 262.79 183.602 262.96C183.292 263.127 183.045 263.36 182.864 263.659C182.682 263.955 182.591 264.292 182.591 264.67V270H180.892ZM190.396 270.176C189.552 270.176 188.824 269.985 188.214 269.602C187.608 269.216 187.143 268.684 186.817 268.006C186.491 267.328 186.328 266.551 186.328 265.676C186.328 264.79 186.495 264.008 186.828 263.33C187.161 262.648 187.631 262.116 188.237 261.733C188.843 261.35 189.557 261.159 190.379 261.159C191.042 261.159 191.633 261.282 192.152 261.528C192.671 261.771 193.089 262.112 193.408 262.551C193.73 262.991 193.921 263.504 193.982 264.091H192.328C192.237 263.682 192.029 263.33 191.703 263.034C191.381 262.739 190.949 262.591 190.408 262.591C189.934 262.591 189.519 262.716 189.163 262.966C188.811 263.212 188.536 263.564 188.339 264.023C188.143 264.477 188.044 265.015 188.044 265.636C188.044 266.273 188.141 266.822 188.334 267.284C188.527 267.746 188.8 268.104 189.152 268.358C189.508 268.612 189.927 268.739 190.408 268.739C190.73 268.739 191.021 268.68 191.283 268.562C191.548 268.441 191.769 268.269 191.947 268.045C192.129 267.822 192.256 267.553 192.328 267.239H193.982C193.921 267.803 193.737 268.307 193.43 268.75C193.124 269.193 192.713 269.542 192.197 269.795C191.686 270.049 191.086 270.176 190.396 270.176ZM197.497 264.818V270H195.798V258.364H197.474V262.693H197.582C197.787 262.223 198.099 261.85 198.52 261.574C198.94 261.297 199.49 261.159 200.168 261.159C200.766 261.159 201.289 261.282 201.736 261.528C202.187 261.775 202.535 262.142 202.781 262.631C203.031 263.116 203.156 263.722 203.156 264.449V270H201.457V264.653C201.457 264.013 201.293 263.517 200.963 263.165C200.634 262.809 200.175 262.631 199.588 262.631C199.187 262.631 198.827 262.716 198.509 262.886C198.194 263.057 197.946 263.307 197.764 263.636C197.586 263.962 197.497 264.356 197.497 264.818ZM207.963 270.193C207.41 270.193 206.91 270.091 206.463 269.886C206.016 269.678 205.662 269.377 205.401 268.983C205.143 268.589 205.014 268.106 205.014 267.534C205.014 267.042 205.109 266.636 205.298 266.318C205.488 266 205.743 265.748 206.065 265.562C206.387 265.377 206.747 265.237 207.145 265.142C207.543 265.047 207.948 264.975 208.361 264.926C208.884 264.866 209.308 264.816 209.634 264.778C209.959 264.737 210.196 264.67 210.344 264.58C210.491 264.489 210.565 264.341 210.565 264.136V264.097C210.565 263.6 210.425 263.216 210.145 262.943C209.868 262.67 209.455 262.534 208.906 262.534C208.334 262.534 207.884 262.661 207.554 262.915C207.228 263.165 207.003 263.443 206.878 263.75L205.281 263.386C205.471 262.856 205.747 262.428 206.111 262.102C206.478 261.773 206.901 261.534 207.378 261.386C207.855 261.235 208.357 261.159 208.884 261.159C209.232 261.159 209.601 261.201 209.991 261.284C210.385 261.364 210.753 261.511 211.094 261.727C211.438 261.943 211.721 262.252 211.94 262.653C212.16 263.051 212.27 263.568 212.27 264.205V270H210.611V268.807H210.543C210.433 269.027 210.268 269.242 210.048 269.455C209.829 269.667 209.546 269.843 209.202 269.983C208.857 270.123 208.444 270.193 207.963 270.193ZM208.332 268.83C208.802 268.83 209.204 268.737 209.537 268.551C209.874 268.366 210.13 268.123 210.304 267.824C210.482 267.521 210.571 267.197 210.571 266.852V265.727C210.51 265.788 210.393 265.845 210.219 265.898C210.048 265.947 209.853 265.991 209.634 266.028C209.414 266.062 209.2 266.095 208.991 266.125C208.783 266.152 208.609 266.174 208.469 266.193C208.139 266.235 207.838 266.305 207.565 266.403C207.296 266.502 207.08 266.644 206.918 266.83C206.759 267.011 206.679 267.254 206.679 267.557C206.679 267.977 206.834 268.295 207.145 268.511C207.455 268.723 207.851 268.83 208.332 268.83ZM221.072 263.403L219.533 263.676C219.468 263.479 219.366 263.292 219.226 263.114C219.089 262.936 218.904 262.79 218.669 262.676C218.434 262.562 218.141 262.506 217.788 262.506C217.307 262.506 216.906 262.614 216.584 262.83C216.262 263.042 216.101 263.316 216.101 263.653C216.101 263.945 216.209 264.18 216.425 264.358C216.641 264.536 216.989 264.682 217.47 264.795L218.857 265.114C219.66 265.299 220.258 265.585 220.652 265.972C221.046 266.358 221.243 266.86 221.243 267.477C221.243 268 221.091 268.466 220.788 268.875C220.489 269.28 220.071 269.598 219.533 269.83C218.999 270.061 218.379 270.176 217.675 270.176C216.697 270.176 215.9 269.968 215.283 269.551C214.665 269.131 214.286 268.534 214.146 267.761L215.788 267.511C215.891 267.939 216.101 268.263 216.419 268.483C216.737 268.699 217.152 268.807 217.663 268.807C218.22 268.807 218.665 268.691 218.999 268.46C219.332 268.225 219.499 267.939 219.499 267.602C219.499 267.33 219.396 267.1 219.192 266.915C218.991 266.729 218.682 266.589 218.266 266.494L216.788 266.17C215.974 265.985 215.372 265.689 214.982 265.284C214.595 264.879 214.402 264.366 214.402 263.744C214.402 263.229 214.546 262.778 214.834 262.392C215.122 262.006 215.519 261.705 216.027 261.489C216.535 261.269 217.116 261.159 217.771 261.159C218.714 261.159 219.457 261.364 219.999 261.773C220.54 262.178 220.898 262.722 221.072 263.403ZM226.872 270.176C226.012 270.176 225.272 269.992 224.651 269.625C224.033 269.254 223.556 268.733 223.219 268.062C222.885 267.388 222.719 266.598 222.719 265.693C222.719 264.799 222.885 264.011 223.219 263.33C223.556 262.648 224.026 262.116 224.628 261.733C225.234 261.35 225.942 261.159 226.753 261.159C227.245 261.159 227.723 261.241 228.185 261.403C228.647 261.566 229.062 261.822 229.429 262.17C229.796 262.519 230.086 262.972 230.298 263.528C230.51 264.081 230.616 264.754 230.616 265.545V266.148H223.679V264.875H228.952C228.952 264.428 228.861 264.032 228.679 263.688C228.497 263.339 228.241 263.064 227.912 262.864C227.586 262.663 227.204 262.562 226.764 262.562C226.287 262.562 225.87 262.68 225.514 262.915C225.162 263.146 224.889 263.449 224.696 263.824C224.507 264.195 224.412 264.598 224.412 265.034V266.028C224.412 266.612 224.514 267.108 224.719 267.517C224.927 267.926 225.217 268.239 225.588 268.455C225.959 268.667 226.393 268.773 226.889 268.773C227.211 268.773 227.505 268.727 227.77 268.636C228.035 268.542 228.264 268.402 228.457 268.216C228.651 268.03 228.798 267.801 228.901 267.528L230.509 267.818C230.38 268.292 230.149 268.706 229.815 269.062C229.486 269.415 229.071 269.689 228.571 269.886C228.075 270.08 227.509 270.176 226.872 270.176ZM239.041 263.403L237.501 263.676C237.437 263.479 237.335 263.292 237.195 263.114C237.058 262.936 236.873 262.79 236.638 262.676C236.403 262.562 236.109 262.506 235.757 262.506C235.276 262.506 234.875 262.614 234.553 262.83C234.231 263.042 234.07 263.316 234.07 263.653C234.07 263.945 234.178 264.18 234.393 264.358C234.609 264.536 234.958 264.682 235.439 264.795L236.825 265.114C237.628 265.299 238.227 265.585 238.621 265.972C239.015 266.358 239.212 266.86 239.212 267.477C239.212 268 239.06 268.466 238.757 268.875C238.458 269.28 238.039 269.598 237.501 269.83C236.967 270.061 236.348 270.176 235.643 270.176C234.666 270.176 233.869 269.968 233.251 269.551C232.634 269.131 232.255 268.534 232.115 267.761L233.757 267.511C233.859 267.939 234.07 268.263 234.388 268.483C234.706 268.699 235.121 268.807 235.632 268.807C236.189 268.807 236.634 268.691 236.967 268.46C237.301 268.225 237.467 267.939 237.467 267.602C237.467 267.33 237.365 267.1 237.161 266.915C236.96 266.729 236.651 266.589 236.234 266.494L234.757 266.17C233.943 265.985 233.34 265.689 232.95 265.284C232.564 264.879 232.371 264.366 232.371 263.744C232.371 263.229 232.515 262.778 232.803 262.392C233.09 262.006 233.488 261.705 233.996 261.489C234.503 261.269 235.085 261.159 235.74 261.159C236.683 261.159 237.426 261.364 237.967 261.773C238.509 262.178 238.867 262.722 239.041 263.403Z" fill="#747475"/>
<path d="M130.75 321.5C130.008 321.5 129.283 321.28 128.667 320.868C128.05 320.456 127.569 319.87 127.285 319.185C127.002 318.5 126.927 317.746 127.072 317.018C127.217 316.291 127.574 315.623 128.098 315.098C128.623 314.574 129.291 314.217 130.018 314.072C130.746 313.927 131.5 314.002 132.185 314.285C132.87 314.569 133.456 315.05 133.868 315.667C134.28 316.283 134.5 317.008 134.5 317.75C134.499 318.744 134.104 319.698 133.401 320.401C132.698 321.104 131.744 321.499 130.75 321.5ZM130.75 315.5C130.305 315.5 129.87 315.632 129.5 315.879C129.13 316.126 128.842 316.478 128.671 316.889C128.501 317.3 128.456 317.752 128.543 318.189C128.63 318.625 128.844 319.026 129.159 319.341C129.474 319.656 129.875 319.87 130.311 319.957C130.748 320.044 131.2 319.999 131.611 319.829C132.022 319.658 132.374 319.37 132.621 319C132.868 318.63 133 318.195 133 317.75C132.999 317.153 132.762 316.581 132.34 316.16C131.919 315.738 131.347 315.501 130.75 315.5ZM127 330.94L143.939 314L145 315.061L128.061 332L127 330.94ZM141.25 332C140.508 332 139.783 331.78 139.167 331.368C138.55 330.956 138.069 330.37 137.785 329.685C137.502 329 137.427 328.246 137.572 327.518C137.717 326.791 138.074 326.123 138.598 325.598C139.123 325.074 139.791 324.717 140.518 324.572C141.246 324.427 142 324.502 142.685 324.785C143.37 325.069 143.956 325.55 144.368 326.167C144.78 326.783 145 327.508 145 328.25C144.999 329.244 144.604 330.198 143.901 330.901C143.198 331.604 142.244 331.999 141.25 332ZM141.25 326C140.805 326 140.37 326.132 140 326.379C139.63 326.626 139.342 326.978 139.171 327.389C139.001 327.8 138.956 328.252 139.043 328.689C139.13 329.125 139.344 329.526 139.659 329.841C139.974 330.156 140.375 330.37 140.811 330.457C141.248 330.544 141.7 330.499 142.111 330.329C142.522 330.158 142.874 329.87 143.121 329.5C143.368 329.13 143.5 328.695 143.5 328.25C143.499 327.653 143.262 327.081 142.84 326.66C142.419 326.238 141.847 326.001 141.25 326Z" fill="#747475"/>
<path d="M167.625 320.42C167.564 319.883 167.314 319.466 166.875 319.17C166.436 318.871 165.883 318.722 165.216 318.722C164.739 318.722 164.326 318.797 163.977 318.949C163.629 319.097 163.358 319.301 163.165 319.562C162.975 319.82 162.881 320.114 162.881 320.443C162.881 320.72 162.945 320.958 163.074 321.159C163.206 321.36 163.379 321.528 163.591 321.665C163.807 321.797 164.038 321.909 164.284 322C164.53 322.087 164.767 322.159 164.994 322.216L166.131 322.511C166.502 322.602 166.883 322.725 167.273 322.881C167.663 323.036 168.025 323.241 168.358 323.494C168.691 323.748 168.96 324.062 169.165 324.438C169.373 324.812 169.477 325.261 169.477 325.784C169.477 326.443 169.307 327.028 168.966 327.54C168.629 328.051 168.138 328.455 167.494 328.75C166.854 329.045 166.08 329.193 165.17 329.193C164.299 329.193 163.545 329.055 162.909 328.778C162.273 328.502 161.775 328.11 161.415 327.602C161.055 327.091 160.856 326.485 160.818 325.784H162.58C162.614 326.205 162.75 326.555 162.989 326.835C163.231 327.112 163.54 327.318 163.915 327.455C164.294 327.587 164.708 327.653 165.159 327.653C165.655 327.653 166.097 327.576 166.483 327.42C166.873 327.261 167.18 327.042 167.403 326.761C167.627 326.477 167.739 326.146 167.739 325.767C167.739 325.422 167.64 325.14 167.443 324.92C167.25 324.701 166.987 324.519 166.653 324.375C166.324 324.231 165.951 324.104 165.534 323.994L164.159 323.619C163.227 323.366 162.489 322.992 161.943 322.5C161.402 322.008 161.131 321.356 161.131 320.545C161.131 319.875 161.313 319.29 161.676 318.79C162.04 318.29 162.532 317.902 163.153 317.625C163.775 317.345 164.475 317.205 165.256 317.205C166.044 317.205 166.739 317.343 167.341 317.619C167.947 317.896 168.424 318.277 168.773 318.761C169.121 319.242 169.303 319.795 169.318 320.42H167.625ZM175.2 329.176C174.34 329.176 173.6 328.992 172.979 328.625C172.361 328.254 171.884 327.733 171.547 327.062C171.214 326.388 171.047 325.598 171.047 324.693C171.047 323.799 171.214 323.011 171.547 322.33C171.884 321.648 172.354 321.116 172.956 320.733C173.562 320.35 174.27 320.159 175.081 320.159C175.573 320.159 176.051 320.241 176.513 320.403C176.975 320.566 177.39 320.822 177.757 321.17C178.125 321.519 178.414 321.972 178.626 322.528C178.839 323.081 178.945 323.754 178.945 324.545V325.148H172.007V323.875H177.28C177.28 323.428 177.189 323.032 177.007 322.688C176.825 322.339 176.57 322.064 176.24 321.864C175.914 321.663 175.532 321.562 175.092 321.562C174.615 321.562 174.198 321.68 173.842 321.915C173.49 322.146 173.217 322.449 173.024 322.824C172.835 323.195 172.74 323.598 172.74 324.034V325.028C172.74 325.612 172.842 326.108 173.047 326.517C173.255 326.926 173.545 327.239 173.916 327.455C174.287 327.667 174.721 327.773 175.217 327.773C175.539 327.773 175.833 327.727 176.098 327.636C176.363 327.542 176.592 327.402 176.786 327.216C176.979 327.03 177.126 326.801 177.229 326.528L178.837 326.818C178.708 327.292 178.477 327.706 178.143 328.062C177.814 328.415 177.399 328.689 176.899 328.886C176.403 329.08 175.837 329.176 175.2 329.176ZM182.528 317.364V329H180.83V317.364H182.528ZM186.513 317.364V329H184.814V317.364H186.513ZM194.732 323.818V329H193.033V317.364H194.709V321.693H194.817C195.021 321.223 195.334 320.85 195.754 320.574C196.175 320.297 196.724 320.159 197.402 320.159C198 320.159 198.523 320.282 198.97 320.528C199.421 320.775 199.769 321.142 200.016 321.631C200.266 322.116 200.391 322.722 200.391 323.449V329H198.692V323.653C198.692 323.013 198.527 322.517 198.197 322.165C197.868 321.809 197.41 321.631 196.822 321.631C196.421 321.631 196.061 321.716 195.743 321.886C195.429 322.057 195.18 322.307 194.999 322.636C194.821 322.962 194.732 323.356 194.732 323.818ZM202.658 329V320.273H204.357V329H202.658ZM203.516 318.926C203.22 318.926 202.966 318.828 202.754 318.631C202.546 318.43 202.442 318.191 202.442 317.915C202.442 317.634 202.546 317.396 202.754 317.199C202.966 316.998 203.22 316.898 203.516 316.898C203.811 316.898 204.063 316.998 204.271 317.199C204.483 317.396 204.589 317.634 204.589 317.915C204.589 318.191 204.483 318.43 204.271 318.631C204.063 318.828 203.811 318.926 203.516 318.926ZM213.182 322.403L211.642 322.676C211.578 322.479 211.475 322.292 211.335 322.114C211.199 321.936 211.013 321.79 210.778 321.676C210.544 321.562 210.25 321.506 209.898 321.506C209.417 321.506 209.015 321.614 208.693 321.83C208.371 322.042 208.21 322.316 208.21 322.653C208.21 322.945 208.318 323.18 208.534 323.358C208.75 323.536 209.098 323.682 209.58 323.795L210.966 324.114C211.769 324.299 212.367 324.585 212.761 324.972C213.155 325.358 213.352 325.86 213.352 326.477C213.352 327 213.201 327.466 212.898 327.875C212.598 328.28 212.18 328.598 211.642 328.83C211.108 329.061 210.489 329.176 209.784 329.176C208.807 329.176 208.009 328.968 207.392 328.551C206.775 328.131 206.396 327.534 206.256 326.761L207.898 326.511C208 326.939 208.21 327.263 208.528 327.483C208.847 327.699 209.261 327.807 209.773 327.807C210.33 327.807 210.775 327.691 211.108 327.46C211.441 327.225 211.608 326.939 211.608 326.602C211.608 326.33 211.506 326.1 211.301 325.915C211.1 325.729 210.792 325.589 210.375 325.494L208.898 325.17C208.083 324.985 207.481 324.689 207.091 324.284C206.705 323.879 206.511 323.366 206.511 322.744C206.511 322.229 206.655 321.778 206.943 321.392C207.231 321.006 207.629 320.705 208.136 320.489C208.644 320.269 209.225 320.159 209.881 320.159C210.824 320.159 211.566 320.364 212.108 320.773C212.65 321.178 213.008 321.722 213.182 322.403ZM219.294 320.273V321.636H214.527V320.273H219.294ZM215.805 318.182H217.504V326.438C217.504 326.767 217.554 327.015 217.652 327.182C217.75 327.345 217.877 327.456 218.033 327.517C218.192 327.574 218.364 327.602 218.55 327.602C218.686 327.602 218.805 327.593 218.908 327.574C219.01 327.555 219.089 327.54 219.146 327.528L219.453 328.932C219.355 328.97 219.214 329.008 219.033 329.045C218.851 329.087 218.624 329.11 218.351 329.114C217.904 329.121 217.487 329.042 217.101 328.875C216.714 328.708 216.402 328.451 216.163 328.102C215.925 327.754 215.805 327.316 215.805 326.79V318.182ZM224.756 329.176C223.938 329.176 223.223 328.989 222.614 328.614C222.004 328.239 221.53 327.714 221.193 327.04C220.856 326.366 220.688 325.578 220.688 324.676C220.688 323.771 220.856 322.979 221.193 322.301C221.53 321.623 222.004 321.097 222.614 320.722C223.223 320.347 223.938 320.159 224.756 320.159C225.574 320.159 226.288 320.347 226.898 320.722C227.508 321.097 227.981 321.623 228.318 322.301C228.655 322.979 228.824 323.771 228.824 324.676C228.824 325.578 228.655 326.366 228.318 327.04C227.981 327.714 227.508 328.239 226.898 328.614C226.288 328.989 225.574 329.176 224.756 329.176ZM224.761 327.75C225.292 327.75 225.731 327.61 226.08 327.33C226.428 327.049 226.686 326.676 226.852 326.21C227.023 325.744 227.108 325.231 227.108 324.67C227.108 324.114 227.023 323.602 226.852 323.136C226.686 322.667 226.428 322.29 226.08 322.006C225.731 321.722 225.292 321.58 224.761 321.58C224.227 321.58 223.784 321.722 223.432 322.006C223.083 322.29 222.824 322.667 222.653 323.136C222.487 323.602 222.403 324.114 222.403 324.67C222.403 325.231 222.487 325.744 222.653 326.21C222.824 326.676 223.083 327.049 223.432 327.33C223.784 327.61 224.227 327.75 224.761 327.75ZM230.72 329V320.273H232.362V321.659H232.453C232.612 321.189 232.893 320.82 233.294 320.551C233.699 320.278 234.158 320.142 234.669 320.142C234.775 320.142 234.9 320.146 235.044 320.153C235.192 320.161 235.307 320.17 235.391 320.182V321.807C235.322 321.788 235.201 321.767 235.027 321.744C234.853 321.718 234.679 321.705 234.504 321.705C234.103 321.705 233.745 321.79 233.43 321.96C233.12 322.127 232.874 322.36 232.692 322.659C232.51 322.955 232.419 323.292 232.419 323.67V329H230.72ZM238.2 332.273C237.946 332.273 237.715 332.252 237.507 332.21C237.299 332.172 237.143 332.131 237.041 332.085L237.45 330.693C237.761 330.777 238.037 330.813 238.28 330.801C238.522 330.79 238.736 330.699 238.922 330.528C239.111 330.358 239.278 330.08 239.422 329.693L239.632 329.114L236.439 320.273H238.257L240.467 327.045H240.558L242.768 320.273H244.592L240.996 330.165C240.829 330.619 240.617 331.004 240.359 331.318C240.102 331.636 239.795 331.875 239.439 332.034C239.083 332.193 238.67 332.273 238.2 332.273Z" fill="#747475"/>
<path d="M142 380.875C142 381.098 141.934 381.315 141.81 381.5C141.687 381.685 141.511 381.829 141.306 381.914C141.1 382 140.874 382.022 140.656 381.978C140.437 381.935 140.237 381.828 140.08 381.67C139.922 381.513 139.815 381.313 139.772 381.094C139.728 380.876 139.75 380.65 139.836 380.444C139.921 380.239 140.065 380.063 140.25 379.94C140.435 379.816 140.652 379.75 140.875 379.75C141.173 379.75 141.46 379.869 141.67 380.08C141.881 380.29 142 380.577 142 380.875ZM138.25 376H134.5C134.301 376 134.11 376.079 133.97 376.22C133.829 376.36 133.75 376.551 133.75 376.75C133.75 376.949 133.829 377.14 133.97 377.28C134.11 377.421 134.301 377.5 134.5 377.5H138.25C138.449 377.5 138.64 377.421 138.78 377.28C138.921 377.14 139 376.949 139 376.75C139 376.551 138.921 376.36 138.78 376.22C138.64 376.079 138.449 376 138.25 376ZM147.25 380.5V383.5C147.25 384.097 147.013 384.669 146.591 385.091C146.169 385.513 145.597 385.75 145 385.75H144.779L143.259 390.004C143.155 390.296 142.963 390.548 142.71 390.726C142.458 390.904 142.156 391 141.846 391H140.654C140.344 391 140.042 390.904 139.79 390.726C139.537 390.548 139.345 390.296 139.241 390.004L139.061 389.5H133.689L133.509 390.004C133.405 390.296 133.213 390.548 132.96 390.726C132.708 390.904 132.406 391 132.096 391H130.904C130.594 391 130.292 390.904 130.04 390.726C129.787 390.548 129.595 390.296 129.491 390.004L128.312 386.708C127.191 385.439 126.489 383.855 126.302 382.172C126.06 382.3 125.858 382.49 125.716 382.724C125.575 382.958 125.5 383.227 125.5 383.5C125.5 383.699 125.421 383.89 125.28 384.03C125.14 384.171 124.949 384.25 124.75 384.25C124.551 384.25 124.36 384.171 124.22 384.03C124.079 383.89 124 383.699 124 383.5C124.001 382.831 124.226 382.182 124.638 381.655C125.051 381.129 125.627 380.755 126.276 380.594C126.444 378.527 127.383 376.599 128.906 375.192C130.43 373.785 132.426 373.003 134.5 373H144.25C144.449 373 144.64 373.079 144.78 373.22C144.921 373.36 145 373.551 145 373.75C145 373.949 144.921 374.14 144.78 374.28C144.64 374.421 144.449 374.5 144.25 374.5H142.245C143.489 375.373 144.468 376.574 145.073 377.969C145.113 378.062 145.153 378.156 145.19 378.25C145.753 378.298 146.278 378.556 146.66 378.973C147.041 379.39 147.252 379.935 147.25 380.5ZM145.75 380.5C145.75 380.301 145.671 380.11 145.53 379.97C145.39 379.829 145.199 379.75 145 379.75H144.657C144.497 379.75 144.342 379.699 144.213 379.605C144.084 379.51 143.989 379.377 143.941 379.225C143.511 377.854 142.654 376.656 141.496 375.806C140.337 374.956 138.937 374.498 137.5 374.5H134.5C133.19 374.5 131.908 374.881 130.811 375.597C129.714 376.313 128.849 377.332 128.321 378.531C127.794 379.73 127.626 381.057 127.84 382.349C128.053 383.642 128.638 384.844 129.523 385.81C129.59 385.884 129.643 385.97 129.677 386.064L130.904 389.5H132.096L132.454 388.498C132.506 388.352 132.602 388.226 132.728 388.137C132.855 388.048 133.006 388 133.16 388H139.59C139.744 388 139.895 388.048 140.022 388.137C140.148 388.226 140.244 388.352 140.296 388.498L140.654 389.5H141.846L143.544 384.748C143.596 384.602 143.692 384.476 143.818 384.387C143.945 384.298 144.095 384.25 144.25 384.25H145C145.199 384.25 145.39 384.171 145.53 384.03C145.671 383.89 145.75 383.699 145.75 383.5V380.5Z" fill="#747475"/>
<path d="M161.278 388V376.364H163.034V386.489H168.307V388H161.278ZM173.935 388.176C173.075 388.176 172.334 387.992 171.713 387.625C171.096 387.254 170.618 386.733 170.281 386.062C169.948 385.388 169.781 384.598 169.781 383.693C169.781 382.799 169.948 382.011 170.281 381.33C170.618 380.648 171.088 380.116 171.69 379.733C172.296 379.35 173.005 379.159 173.815 379.159C174.308 379.159 174.785 379.241 175.247 379.403C175.709 379.566 176.124 379.822 176.491 380.17C176.859 380.519 177.149 380.972 177.361 381.528C177.573 382.081 177.679 382.754 177.679 383.545V384.148H170.741V382.875H176.014C176.014 382.428 175.923 382.032 175.741 381.688C175.56 381.339 175.304 381.064 174.974 380.864C174.649 380.663 174.266 380.562 173.827 380.562C173.349 380.562 172.933 380.68 172.577 380.915C172.224 381.146 171.952 381.449 171.759 381.824C171.569 382.195 171.474 382.598 171.474 383.034V384.028C171.474 384.612 171.577 385.108 171.781 385.517C171.99 385.926 172.279 386.239 172.651 386.455C173.022 386.667 173.455 386.773 173.952 386.773C174.274 386.773 174.567 386.727 174.832 386.636C175.098 386.542 175.327 386.402 175.52 386.216C175.713 386.03 175.861 385.801 175.963 385.528L177.571 385.818C177.442 386.292 177.211 386.706 176.878 387.062C176.548 387.415 176.134 387.689 175.634 387.886C175.137 388.08 174.571 388.176 173.935 388.176ZM186.78 379.273L183.615 388H181.797L178.626 379.273H180.45L182.661 385.989H182.751L184.956 379.273H186.78ZM191.841 388.176C190.981 388.176 190.241 387.992 189.619 387.625C189.002 387.254 188.525 386.733 188.188 386.062C187.854 385.388 187.688 384.598 187.688 383.693C187.688 382.799 187.854 382.011 188.188 381.33C188.525 380.648 188.994 380.116 189.597 379.733C190.203 379.35 190.911 379.159 191.722 379.159C192.214 379.159 192.691 379.241 193.153 379.403C193.616 379.566 194.03 379.822 194.398 380.17C194.765 380.519 195.055 380.972 195.267 381.528C195.479 382.081 195.585 382.754 195.585 383.545V384.148H188.648V382.875H193.92C193.92 382.428 193.83 382.032 193.648 381.688C193.466 381.339 193.21 381.064 192.881 380.864C192.555 380.663 192.172 380.562 191.733 380.562C191.256 380.562 190.839 380.68 190.483 380.915C190.131 381.146 189.858 381.449 189.665 381.824C189.475 382.195 189.381 382.598 189.381 383.034V384.028C189.381 384.612 189.483 385.108 189.688 385.517C189.896 385.926 190.186 386.239 190.557 386.455C190.928 386.667 191.362 386.773 191.858 386.773C192.18 386.773 192.473 386.727 192.739 386.636C193.004 386.542 193.233 386.402 193.426 386.216C193.619 386.03 193.767 385.801 193.869 385.528L195.477 385.818C195.348 386.292 195.117 386.706 194.784 387.062C194.455 387.415 194.04 387.689 193.54 387.886C193.044 388.08 192.477 388.176 191.841 388.176ZM199.169 376.364V388H197.47V376.364H199.169ZM207.581 376.364V388H205.825V376.364H207.581ZM211.7 382.818V388H210.001V379.273H211.632V380.693H211.74C211.941 380.231 212.255 379.86 212.683 379.58C213.115 379.299 213.659 379.159 214.314 379.159C214.909 379.159 215.429 379.284 215.876 379.534C216.323 379.78 216.67 380.148 216.916 380.636C217.162 381.125 217.286 381.729 217.286 382.449V388H215.587V382.653C215.587 382.021 215.422 381.527 215.092 381.17C214.763 380.811 214.31 380.631 213.734 380.631C213.34 380.631 212.99 380.716 212.683 380.886C212.38 381.057 212.14 381.307 211.962 381.636C211.787 381.962 211.7 382.356 211.7 382.818ZM223.717 379.273V380.636H218.786V379.273H223.717ZM220.138 388V378.261C220.138 377.716 220.257 377.263 220.496 376.903C220.734 376.54 221.051 376.269 221.445 376.091C221.839 375.909 222.267 375.818 222.729 375.818C223.07 375.818 223.361 375.847 223.604 375.903C223.846 375.956 224.026 376.006 224.143 376.051L223.746 377.426C223.666 377.403 223.564 377.377 223.439 377.347C223.314 377.312 223.162 377.295 222.984 377.295C222.571 377.295 222.276 377.398 222.098 377.602C221.924 377.807 221.837 378.102 221.837 378.489V388H220.138ZM228.803 388.176C227.984 388.176 227.27 387.989 226.661 387.614C226.051 387.239 225.577 386.714 225.24 386.04C224.903 385.366 224.734 384.578 224.734 383.676C224.734 382.771 224.903 381.979 225.24 381.301C225.577 380.623 226.051 380.097 226.661 379.722C227.27 379.347 227.984 379.159 228.803 379.159C229.621 379.159 230.335 379.347 230.945 379.722C231.554 380.097 232.028 380.623 232.365 381.301C232.702 381.979 232.871 382.771 232.871 383.676C232.871 384.578 232.702 385.366 232.365 386.04C232.028 386.714 231.554 387.239 230.945 387.614C230.335 387.989 229.621 388.176 228.803 388.176ZM228.808 386.75C229.339 386.75 229.778 386.61 230.126 386.33C230.475 386.049 230.732 385.676 230.899 385.21C231.07 384.744 231.155 384.231 231.155 383.67C231.155 383.114 231.07 382.602 230.899 382.136C230.732 381.667 230.475 381.29 230.126 381.006C229.778 380.722 229.339 380.58 228.808 380.58C228.274 380.58 227.831 380.722 227.479 381.006C227.13 381.29 226.871 381.667 226.7 382.136C226.534 382.602 226.45 383.114 226.45 383.67C226.45 384.231 226.534 384.744 226.7 385.21C226.871 385.676 227.13 386.049 227.479 386.33C227.831 386.61 228.274 386.75 228.808 386.75Z" fill="#747475"/>
<path d="M136 441L138.652 438.348C138.038 437.735 137.231 437.353 136.367 437.268C135.504 437.183 134.638 437.4 133.916 437.882C133.195 438.364 132.663 439.082 132.411 439.912C132.16 440.742 132.203 441.634 132.536 442.436C132.868 443.237 133.467 443.899 134.232 444.308C134.998 444.717 135.881 444.847 136.732 444.678C137.583 444.509 138.349 444.05 138.899 443.379C139.449 442.708 139.75 441.868 139.75 441" stroke="#747475" stroke-width="1.5" stroke-linecap="round" stroke-linejoin="round"/>
<path d="M136 450.75C140.522 449.192 143.745 445.569 144.25 440.956C144.39 438.953 144.379 436.943 144.215 434.942C144.193 434.627 144.055 434.331 143.826 434.112C143.598 433.893 143.297 433.767 142.981 433.759C140.935 433.696 138.558 433.355 136.721 431.546C136.529 431.356 136.27 431.25 136 431.25C135.731 431.25 135.472 431.356 135.28 431.546C133.443 433.355 131.065 433.696 129.02 433.759C128.704 433.767 128.403 433.893 128.174 434.112C127.946 434.331 127.808 434.627 127.786 434.942C127.622 436.943 127.61 438.953 127.75 440.956C128.256 445.569 131.479 449.192 136 450.75Z" stroke="#747475" stroke-linecap="round" stroke-linejoin="round"/>
<path d="M167.625 438.42C167.564 437.883 167.314 437.466 166.875 437.17C166.436 436.871 165.883 436.722 165.216 436.722C164.739 436.722 164.326 436.797 163.977 436.949C163.629 437.097 163.358 437.301 163.165 437.562C162.975 437.82 162.881 438.114 162.881 438.443C162.881 438.72 162.945 438.958 163.074 439.159C163.206 439.36 163.379 439.528 163.591 439.665C163.807 439.797 164.038 439.909 164.284 440C164.53 440.087 164.767 440.159 164.994 440.216L166.131 440.511C166.502 440.602 166.883 440.725 167.273 440.881C167.663 441.036 168.025 441.241 168.358 441.494C168.691 441.748 168.96 442.062 169.165 442.438C169.373 442.812 169.477 443.261 169.477 443.784C169.477 444.443 169.307 445.028 168.966 445.54C168.629 446.051 168.138 446.455 167.494 446.75C166.854 447.045 166.08 447.193 165.17 447.193C164.299 447.193 163.545 447.055 162.909 446.778C162.273 446.502 161.775 446.11 161.415 445.602C161.055 445.091 160.856 444.485 160.818 443.784H162.58C162.614 444.205 162.75 444.555 162.989 444.835C163.231 445.112 163.54 445.318 163.915 445.455C164.294 445.587 164.708 445.653 165.159 445.653C165.655 445.653 166.097 445.576 166.483 445.42C166.873 445.261 167.18 445.042 167.403 444.761C167.627 444.477 167.739 444.146 167.739 443.767C167.739 443.422 167.64 443.14 167.443 442.92C167.25 442.701 166.987 442.519 166.653 442.375C166.324 442.231 165.951 442.104 165.534 441.994L164.159 441.619C163.227 441.366 162.489 440.992 161.943 440.5C161.402 440.008 161.131 439.356 161.131 438.545C161.131 437.875 161.313 437.29 161.676 436.79C162.04 436.29 162.532 435.902 163.153 435.625C163.775 435.345 164.475 435.205 165.256 435.205C166.044 435.205 166.739 435.343 167.341 435.619C167.947 435.896 168.424 436.277 168.773 436.761C169.121 437.242 169.303 437.795 169.318 438.42H167.625ZM175.513 438.273V439.636H170.746V438.273H175.513ZM172.024 436.182H173.723V444.438C173.723 444.767 173.772 445.015 173.871 445.182C173.969 445.345 174.096 445.456 174.251 445.517C174.411 445.574 174.583 445.602 174.768 445.602C174.905 445.602 175.024 445.593 175.126 445.574C175.229 445.555 175.308 445.54 175.365 445.528L175.672 446.932C175.573 446.97 175.433 447.008 175.251 447.045C175.07 447.087 174.842 447.11 174.57 447.114C174.123 447.121 173.706 447.042 173.32 446.875C172.933 446.708 172.621 446.451 172.382 446.102C172.143 445.754 172.024 445.316 172.024 444.79V436.182ZM179.932 447.193C179.379 447.193 178.879 447.091 178.432 446.886C177.985 446.678 177.631 446.377 177.369 445.983C177.112 445.589 176.983 445.106 176.983 444.534C176.983 444.042 177.078 443.636 177.267 443.318C177.456 443 177.712 442.748 178.034 442.562C178.356 442.377 178.716 442.237 179.114 442.142C179.511 442.047 179.917 441.975 180.33 441.926C180.852 441.866 181.277 441.816 181.602 441.778C181.928 441.737 182.165 441.67 182.312 441.58C182.46 441.489 182.534 441.341 182.534 441.136V441.097C182.534 440.6 182.394 440.216 182.114 439.943C181.837 439.67 181.424 439.534 180.875 439.534C180.303 439.534 179.852 439.661 179.523 439.915C179.197 440.165 178.972 440.443 178.847 440.75L177.25 440.386C177.439 439.856 177.716 439.428 178.08 439.102C178.447 438.773 178.869 438.534 179.347 438.386C179.824 438.235 180.326 438.159 180.852 438.159C181.201 438.159 181.57 438.201 181.96 438.284C182.354 438.364 182.722 438.511 183.062 438.727C183.407 438.943 183.689 439.252 183.909 439.653C184.129 440.051 184.239 440.568 184.239 441.205V447H182.58V445.807H182.511C182.402 446.027 182.237 446.242 182.017 446.455C181.797 446.667 181.515 446.843 181.17 446.983C180.826 447.123 180.413 447.193 179.932 447.193ZM180.301 445.83C180.771 445.83 181.172 445.737 181.506 445.551C181.843 445.366 182.098 445.123 182.273 444.824C182.451 444.521 182.54 444.197 182.54 443.852V442.727C182.479 442.788 182.362 442.845 182.188 442.898C182.017 442.947 181.822 442.991 181.602 443.028C181.383 443.062 181.169 443.095 180.96 443.125C180.752 443.152 180.578 443.174 180.438 443.193C180.108 443.235 179.807 443.305 179.534 443.403C179.265 443.502 179.049 443.644 178.886 443.83C178.727 444.011 178.648 444.254 178.648 444.557C178.648 444.977 178.803 445.295 179.114 445.511C179.424 445.723 179.82 445.83 180.301 445.83ZM190.575 438.273V439.636H185.808V438.273H190.575ZM187.087 436.182H188.786V444.438C188.786 444.767 188.835 445.015 188.933 445.182C189.032 445.345 189.159 445.456 189.314 445.517C189.473 445.574 189.645 445.602 189.831 445.602C189.967 445.602 190.087 445.593 190.189 445.574C190.291 445.555 190.371 445.54 190.428 445.528L190.734 446.932C190.636 446.97 190.496 447.008 190.314 447.045C190.132 447.087 189.905 447.11 189.632 447.114C189.185 447.121 188.768 447.042 188.382 446.875C187.996 446.708 187.683 446.451 187.445 446.102C187.206 445.754 187.087 445.316 187.087 444.79V436.182ZM192.455 447V438.273H194.153V447H192.455ZM193.312 436.926C193.017 436.926 192.763 436.828 192.551 436.631C192.343 436.43 192.239 436.191 192.239 435.915C192.239 435.634 192.343 435.396 192.551 435.199C192.763 434.998 193.017 434.898 193.312 434.898C193.608 434.898 193.86 434.998 194.068 435.199C194.28 435.396 194.386 435.634 194.386 435.915C194.386 436.191 194.28 436.43 194.068 436.631C193.86 436.828 193.608 436.926 193.312 436.926ZM202.979 440.403L201.439 440.676C201.375 440.479 201.272 440.292 201.132 440.114C200.996 439.936 200.81 439.79 200.575 439.676C200.34 439.562 200.047 439.506 199.695 439.506C199.214 439.506 198.812 439.614 198.49 439.83C198.168 440.042 198.007 440.316 198.007 440.653C198.007 440.945 198.115 441.18 198.331 441.358C198.547 441.536 198.895 441.682 199.376 441.795L200.763 442.114C201.566 442.299 202.164 442.585 202.558 442.972C202.952 443.358 203.149 443.86 203.149 444.477C203.149 445 202.998 445.466 202.695 445.875C202.395 446.28 201.977 446.598 201.439 446.83C200.905 447.061 200.286 447.176 199.581 447.176C198.604 447.176 197.806 446.968 197.189 446.551C196.571 446.131 196.193 445.534 196.053 444.761L197.695 444.511C197.797 444.939 198.007 445.263 198.325 445.483C198.643 445.699 199.058 445.807 199.57 445.807C200.126 445.807 200.571 445.691 200.905 445.46C201.238 445.225 201.405 444.939 201.405 444.602C201.405 444.33 201.303 444.1 201.098 443.915C200.897 443.729 200.589 443.589 200.172 443.494L198.695 443.17C197.88 442.985 197.278 442.689 196.888 442.284C196.501 441.879 196.308 441.366 196.308 440.744C196.308 440.229 196.452 439.778 196.74 439.392C197.028 439.006 197.426 438.705 197.933 438.489C198.441 438.269 199.022 438.159 199.678 438.159C200.621 438.159 201.363 438.364 201.905 438.773C202.446 439.178 202.804 439.722 202.979 440.403ZM209.091 438.273V439.636H204.324V438.273H209.091ZM205.602 436.182H207.301V444.438C207.301 444.767 207.35 445.015 207.449 445.182C207.547 445.345 207.674 445.456 207.83 445.517C207.989 445.574 208.161 445.602 208.347 445.602C208.483 445.602 208.602 445.593 208.705 445.574C208.807 445.555 208.886 445.54 208.943 445.528L209.25 446.932C209.152 446.97 209.011 447.008 208.83 447.045C208.648 447.087 208.42 447.11 208.148 447.114C207.701 447.121 207.284 447.042 206.898 446.875C206.511 446.708 206.199 446.451 205.96 446.102C205.722 445.754 205.602 445.316 205.602 444.79V436.182ZM210.97 447V438.273H212.669V447H210.97ZM211.828 436.926C211.533 436.926 211.279 436.828 211.067 436.631C210.858 436.43 210.754 436.191 210.754 435.915C210.754 435.634 210.858 435.396 211.067 435.199C211.279 434.998 211.533 434.898 211.828 434.898C212.124 434.898 212.375 434.998 212.584 435.199C212.796 435.396 212.902 435.634 212.902 435.915C212.902 436.191 212.796 436.43 212.584 436.631C212.375 436.828 212.124 436.926 211.828 436.926ZM218.631 447.176C217.786 447.176 217.059 446.985 216.449 446.602C215.843 446.216 215.377 445.684 215.051 445.006C214.725 444.328 214.562 443.551 214.562 442.676C214.562 441.79 214.729 441.008 215.062 440.33C215.396 439.648 215.866 439.116 216.472 438.733C217.078 438.35 217.792 438.159 218.614 438.159C219.277 438.159 219.867 438.282 220.386 438.528C220.905 438.771 221.324 439.112 221.642 439.551C221.964 439.991 222.155 440.504 222.216 441.091H220.562C220.472 440.682 220.263 440.33 219.938 440.034C219.616 439.739 219.184 439.591 218.642 439.591C218.169 439.591 217.754 439.716 217.398 439.966C217.045 440.212 216.771 440.564 216.574 441.023C216.377 441.477 216.278 442.015 216.278 442.636C216.278 443.273 216.375 443.822 216.568 444.284C216.761 444.746 217.034 445.104 217.386 445.358C217.742 445.612 218.161 445.739 218.642 445.739C218.964 445.739 219.256 445.68 219.517 445.562C219.782 445.441 220.004 445.269 220.182 445.045C220.364 444.822 220.491 444.553 220.562 444.239H222.216C222.155 444.803 221.972 445.307 221.665 445.75C221.358 446.193 220.947 446.542 220.432 446.795C219.92 447.049 219.32 447.176 218.631 447.176ZM230.572 440.403L229.033 440.676C228.968 440.479 228.866 440.292 228.726 440.114C228.589 439.936 228.404 439.79 228.169 439.676C227.934 439.562 227.641 439.506 227.288 439.506C226.807 439.506 226.406 439.614 226.084 439.83C225.762 440.042 225.601 440.316 225.601 440.653C225.601 440.945 225.709 441.18 225.925 441.358C226.141 441.536 226.489 441.682 226.97 441.795L228.357 442.114C229.16 442.299 229.758 442.585 230.152 442.972C230.546 443.358 230.743 443.86 230.743 444.477C230.743 445 230.591 445.466 230.288 445.875C229.989 446.28 229.571 446.598 229.033 446.83C228.499 447.061 227.879 447.176 227.175 447.176C226.197 447.176 225.4 446.968 224.783 446.551C224.165 446.131 223.786 445.534 223.646 444.761L225.288 444.511C225.391 444.939 225.601 445.263 225.919 445.483C226.237 445.699 226.652 445.807 227.163 445.807C227.72 445.807 228.165 445.691 228.499 445.46C228.832 445.225 228.999 444.939 228.999 444.602C228.999 444.33 228.896 444.1 228.692 443.915C228.491 443.729 228.182 443.589 227.766 443.494L226.288 443.17C225.474 442.985 224.872 442.689 224.482 442.284C224.095 441.879 223.902 441.366 223.902 440.744C223.902 440.229 224.046 439.778 224.334 439.392C224.622 439.006 225.019 438.705 225.527 438.489C226.035 438.269 226.616 438.159 227.271 438.159C228.214 438.159 228.957 438.364 229.499 438.773C230.04 439.178 230.398 439.722 230.572 440.403Z" fill="#747475"/>
<path d="M135.95 538C136.3 538 136.596 537.879 136.838 537.637C137.08 537.395 137.201 537.099 137.2 536.75C137.2 536.4 137.079 536.104 136.838 535.862C136.597 535.62 136.301 535.499 135.95 535.5C135.6 535.5 135.304 535.621 135.063 535.863C134.822 536.105 134.701 536.401 134.7 536.75C134.7 537.1 134.821 537.396 135.063 537.638C135.305 537.88 135.601 538.001 135.95 538ZM135.05 534.15H136.9C136.9 533.6 136.963 533.167 137.088 532.85C137.213 532.533 137.567 532.1 138.15 531.55C138.583 531.117 138.925 530.704 139.175 530.312C139.425 529.92 139.55 529.449 139.55 528.9C139.55 527.967 139.208 527.25 138.525 526.75C137.842 526.25 137.033 526 136.1 526C135.15 526 134.379 526.25 133.787 526.75C133.195 527.25 132.783 527.85 132.55 528.55L134.2 529.2C134.283 528.9 134.471 528.575 134.763 528.225C135.055 527.875 135.501 527.7 136.1 527.7C136.633 527.7 137.033 527.846 137.3 528.138C137.567 528.43 137.7 528.751 137.7 529.1C137.7 529.433 137.6 529.746 137.4 530.038C137.2 530.33 136.95 530.601 136.65 530.85C135.917 531.5 135.467 531.992 135.3 532.325C135.133 532.658 135.05 533.267 135.05 534.15ZM136 542C134.617 542 133.317 541.737 132.1 541.212C130.883 540.687 129.825 539.974 128.925 539.075C128.025 538.175 127.313 537.117 126.788 535.9C126.263 534.683 126.001 533.383 126 532C126 530.617 126.263 529.317 126.788 528.1C127.313 526.883 128.026 525.825 128.925 524.925C129.825 524.025 130.883 523.313 132.1 522.788C133.317 522.263 134.617 522.001 136 522C137.383 522 138.683 522.263 139.9 522.788C141.117 523.313 142.175 524.026 143.075 524.925C143.975 525.825 144.688 526.883 145.213 528.1C145.738 529.317 146.001 530.617 146 532C146 533.383 145.737 534.683 145.212 535.9C144.687 537.117 143.974 538.175 143.075 539.075C142.175 539.975 141.117 540.688 139.9 541.213C138.683 541.738 137.383 542.001 136 542ZM136 540C138.233 540 140.125 539.225 141.675 537.675C143.225 536.125 144 534.233 144 532C144 529.767 143.225 527.875 141.675 526.325C140.125 524.775 138.233 524 136 524C133.767 524 131.875 524.775 130.325 526.325C128.775 527.875 128 529.767 128 532C128 534.233 128.775 536.125 130.325 537.675C131.875 539.225 133.767 540 136 540Z" fill="#747475"/>
<path d="M161.328 538V526.08H162.896V531.392H168.864V526.08H170.448V538H168.864V532.832H162.896V538H161.328ZM176.886 538.192C176.054 538.192 175.312 537.995 174.662 537.6C174.011 537.205 173.499 536.667 173.126 535.984C172.752 535.291 172.566 534.517 172.566 533.664C172.566 532.8 172.747 532.032 173.11 531.36C173.483 530.688 173.984 530.16 174.614 529.776C175.254 529.381 175.968 529.184 176.758 529.184C177.398 529.184 177.963 529.301 178.454 529.536C178.955 529.76 179.376 530.069 179.718 530.464C180.07 530.848 180.336 531.291 180.518 531.792C180.71 532.283 180.806 532.795 180.806 533.328C180.806 533.445 180.795 533.579 180.774 533.728C180.763 533.867 180.747 534 180.726 534.128H173.654V532.848H179.862L179.158 533.424C179.254 532.869 179.2 532.373 178.998 531.936C178.795 531.499 178.496 531.152 178.102 530.896C177.707 530.64 177.259 530.512 176.758 530.512C176.256 530.512 175.798 530.64 175.382 530.896C174.966 531.152 174.64 531.52 174.406 532C174.182 532.469 174.091 533.029 174.134 533.68C174.091 534.309 174.187 534.864 174.422 535.344C174.667 535.813 175.008 536.181 175.446 536.448C175.894 536.704 176.379 536.832 176.902 536.832C177.478 536.832 177.963 536.699 178.358 536.432C178.752 536.165 179.072 535.824 179.318 535.408L180.566 536.048C180.395 536.443 180.128 536.805 179.766 537.136C179.414 537.456 178.992 537.712 178.502 537.904C178.022 538.096 177.483 538.192 176.886 538.192ZM182.746 538V525.888H184.234V538H182.746ZM186.543 541.2V529.376H187.999V531.232L187.807 530.864C188.127 530.352 188.564 529.947 189.119 529.648C189.673 529.339 190.308 529.184 191.023 529.184C191.833 529.184 192.559 529.381 193.199 529.776C193.849 530.171 194.361 530.709 194.735 531.392C195.108 532.064 195.295 532.832 195.295 533.696C195.295 534.539 195.108 535.301 194.735 535.984C194.361 536.667 193.849 537.205 193.199 537.6C192.559 537.995 191.828 538.192 191.007 538.192C190.313 538.192 189.679 538.037 189.103 537.728C188.537 537.419 188.1 536.981 187.791 536.416L188.031 536.16V541.2H186.543ZM190.895 536.752C191.439 536.752 191.924 536.619 192.351 536.352C192.777 536.085 193.108 535.723 193.343 535.264C193.588 534.795 193.711 534.272 193.711 533.696C193.711 533.099 193.588 532.576 193.343 532.128C193.108 531.669 192.777 531.307 192.351 531.04C191.924 530.763 191.439 530.624 190.895 530.624C190.351 530.624 189.86 530.757 189.423 531.024C188.996 531.291 188.655 531.659 188.399 532.128C188.153 532.587 188.031 533.109 188.031 533.696C188.031 534.272 188.153 534.795 188.399 535.264C188.655 535.723 188.996 536.085 189.423 536.352C189.86 536.619 190.351 536.752 190.895 536.752Z" fill="#747475"/>
<path d="M136 595C136.796 595 137.559 594.684 138.121 594.121C138.684 593.559 139 592.796 139 592C139 591.204 138.684 590.441 138.121 589.879C137.559 589.316 136.796 589 136 589C135.204 589 134.441 589.316 133.879 589.879C133.316 590.441 133 591.204 133 592C133 592.796 133.316 593.559 133.879 594.121C134.441 594.684 135.204 595 136 595Z" stroke="#747475" stroke-miterlimit="10" stroke-linecap="round" stroke-linejoin="round"/>
<path d="M126 592.88V591.12C126 590.08 126.85 589.22 127.9 589.22C129.71 589.22 130.45 587.94 129.54 586.37C129.02 585.47 129.33 584.3 130.24 583.78L131.97 582.79C132.76 582.32 133.78 582.6 134.25 583.39L134.36 583.58C135.26 585.15 136.74 585.15 137.65 583.58L137.76 583.39C138.23 582.6 139.25 582.32 140.04 582.79L141.77 583.78C142.68 584.3 142.99 585.47 142.47 586.37C141.56 587.94 142.3 589.22 144.11 589.22C145.15 589.22 146.01 590.07 146.01 591.12V592.88C146.01 593.92 145.16 594.78 144.11 594.78C142.3 594.78 141.56 596.06 142.47 597.63C142.99 598.54 142.68 599.7 141.77 600.22L140.04 601.21C139.25 601.68 138.23 601.4 137.76 600.61L137.65 600.42C136.75 598.85 135.27 598.85 134.36 600.42L134.25 600.61C133.78 601.4 132.76 601.68 131.97 601.21L130.24 600.22C129.804 599.969 129.486 599.555 129.354 599.07C129.223 598.584 129.29 598.066 129.54 597.63C130.45 596.06 129.71 594.78 127.9 594.78C126.85 594.78 126 593.92 126 592.88Z" stroke="#747475" stroke-miterlimit="10" stroke-linecap="round" stroke-linejoin="round"/>
<path d="M165.424 598.192C164.667 598.192 163.973 598.053 163.344 597.776C162.715 597.488 162.181 597.099 161.744 596.608C161.307 596.117 160.992 595.568 160.8 594.96L162.16 594.4C162.448 595.168 162.875 595.76 163.44 596.176C164.016 596.581 164.688 596.784 165.456 596.784C165.925 596.784 166.336 596.709 166.688 596.56C167.04 596.411 167.312 596.203 167.504 595.936C167.707 595.659 167.808 595.339 167.808 594.976C167.808 594.475 167.664 594.08 167.376 593.792C167.099 593.493 166.688 593.269 166.144 593.12L163.952 592.448C163.088 592.181 162.427 591.76 161.968 591.184C161.509 590.608 161.28 589.947 161.28 589.2C161.28 588.549 161.435 587.979 161.744 587.488C162.064 586.987 162.501 586.597 163.056 586.32C163.621 586.032 164.261 585.888 164.976 585.888C165.691 585.888 166.336 586.016 166.912 586.272C167.499 586.528 167.995 586.875 168.4 587.312C168.805 587.739 169.104 588.229 169.296 588.784L167.952 589.344C167.696 588.672 167.312 588.165 166.8 587.824C166.288 587.472 165.685 587.296 164.992 587.296C164.565 587.296 164.187 587.371 163.856 587.52C163.536 587.659 163.285 587.867 163.104 588.144C162.933 588.411 162.848 588.731 162.848 589.104C162.848 589.541 162.987 589.931 163.264 590.272C163.541 590.613 163.963 590.875 164.528 591.056L166.528 591.648C167.467 591.936 168.176 592.347 168.656 592.88C169.136 593.413 169.376 594.075 169.376 594.864C169.376 595.515 169.205 596.091 168.864 596.592C168.533 597.093 168.069 597.488 167.472 597.776C166.885 598.053 166.203 598.192 165.424 598.192ZM175.464 598.192C174.632 598.192 173.89 597.995 173.24 597.6C172.589 597.205 172.077 596.667 171.704 595.984C171.33 595.291 171.144 594.517 171.144 593.664C171.144 592.8 171.325 592.032 171.688 591.36C172.061 590.688 172.562 590.16 173.192 589.776C173.832 589.381 174.546 589.184 175.336 589.184C175.976 589.184 176.541 589.301 177.032 589.536C177.533 589.76 177.954 590.069 178.296 590.464C178.648 590.848 178.914 591.291 179.096 591.792C179.288 592.283 179.384 592.795 179.384 593.328C179.384 593.445 179.373 593.579 179.352 593.728C179.341 593.867 179.325 594 179.304 594.128H172.232V592.848H178.44L177.736 593.424C177.832 592.869 177.778 592.373 177.576 591.936C177.373 591.499 177.074 591.152 176.68 590.896C176.285 590.64 175.837 590.512 175.336 590.512C174.834 590.512 174.376 590.64 173.96 590.896C173.544 591.152 173.218 591.52 172.984 592C172.76 592.469 172.669 593.029 172.712 593.68C172.669 594.309 172.765 594.864 173 595.344C173.245 595.813 173.586 596.181 174.024 596.448C174.472 596.704 174.957 596.832 175.48 596.832C176.056 596.832 176.541 596.699 176.936 596.432C177.33 596.165 177.65 595.824 177.896 595.408L179.144 596.048C178.973 596.443 178.706 596.805 178.344 597.136C177.992 597.456 177.57 597.712 177.08 597.904C176.6 598.096 176.061 598.192 175.464 598.192ZM184.828 598.096C183.985 598.096 183.335 597.856 182.876 597.376C182.428 596.896 182.204 596.219 182.204 595.344V590.8H180.636V589.376H180.956C181.34 589.376 181.644 589.259 181.868 589.024C182.092 588.789 182.204 588.48 182.204 588.096V587.392H183.692V589.376H185.628V590.8H183.692V595.296C183.692 595.584 183.735 595.835 183.82 596.048C183.916 596.261 184.071 596.432 184.284 596.56C184.497 596.677 184.78 596.736 185.132 596.736C185.207 596.736 185.297 596.731 185.404 596.72C185.521 596.709 185.628 596.699 185.724 596.688V598C185.585 598.032 185.431 598.053 185.26 598.064C185.089 598.085 184.945 598.096 184.828 598.096ZM191.172 598.096C190.329 598.096 189.678 597.856 189.22 597.376C188.772 596.896 188.548 596.219 188.548 595.344V590.8H186.98V589.376H187.3C187.684 589.376 187.988 589.259 188.212 589.024C188.436 588.789 188.548 588.48 188.548 588.096V587.392H190.036V589.376H191.972V590.8H190.036V595.296C190.036 595.584 190.078 595.835 190.164 596.048C190.26 596.261 190.414 596.432 190.628 596.56C190.841 596.677 191.124 596.736 191.476 596.736C191.55 596.736 191.641 596.731 191.748 596.72C191.865 596.709 191.972 596.699 192.068 596.688V598C191.929 598.032 191.774 598.053 191.604 598.064C191.433 598.085 191.289 598.096 191.172 598.096ZM194.011 598V589.376H195.499V598H194.011ZM194.011 588V586.08H195.499V588H194.011ZM197.808 598V589.376H199.264V591.056L199.024 590.912C199.238 590.368 199.579 589.947 200.048 589.648C200.528 589.339 201.088 589.184 201.728 589.184C202.347 589.184 202.896 589.323 203.376 589.6C203.867 589.877 204.251 590.261 204.528 590.752C204.816 591.243 204.96 591.797 204.96 592.416V598H203.456V592.896C203.456 592.416 203.371 592.011 203.2 591.68C203.03 591.349 202.784 591.093 202.464 590.912C202.155 590.72 201.798 590.624 201.392 590.624C200.987 590.624 200.624 590.72 200.304 590.912C199.995 591.093 199.75 591.355 199.568 591.696C199.387 592.027 199.296 592.427 199.296 592.896V598H197.808ZM211.202 601.52C210.594 601.52 210.028 601.424 209.506 601.232C208.994 601.04 208.551 600.773 208.178 600.432C207.815 600.101 207.538 599.712 207.346 599.264L208.738 598.624C208.887 599.029 209.17 599.371 209.586 599.648C210.012 599.936 210.546 600.08 211.186 600.08C211.676 600.08 212.119 599.984 212.514 599.792C212.919 599.611 213.239 599.333 213.474 598.96C213.708 598.597 213.826 598.155 213.826 597.632V595.696L214.098 595.984C213.799 596.571 213.367 597.019 212.802 597.328C212.247 597.637 211.634 597.792 210.962 597.792C210.151 597.792 209.426 597.605 208.786 597.232C208.146 596.848 207.644 596.331 207.282 595.68C206.919 595.019 206.738 594.288 206.738 593.488C206.738 592.677 206.919 591.947 207.282 591.296C207.644 590.645 208.14 590.133 208.77 589.76C209.41 589.376 210.135 589.184 210.946 589.184C211.618 589.184 212.226 589.339 212.77 589.648C213.324 589.947 213.767 590.363 214.098 590.896L213.874 591.296V589.376H215.33V597.632C215.33 598.379 215.154 599.045 214.802 599.632C214.45 600.219 213.959 600.677 213.33 601.008C212.711 601.349 212.002 601.52 211.202 601.52ZM211.09 596.352C211.602 596.352 212.06 596.224 212.466 595.968C212.882 595.712 213.212 595.371 213.458 594.944C213.703 594.507 213.826 594.021 213.826 593.488C213.826 592.965 213.703 592.485 213.458 592.048C213.212 591.611 212.882 591.264 212.466 591.008C212.06 590.752 211.602 590.624 211.09 590.624C210.567 590.624 210.092 590.752 209.666 591.008C209.239 591.264 208.903 591.611 208.658 592.048C208.423 592.475 208.306 592.955 208.306 593.488C208.306 594.021 208.423 594.507 208.658 594.944C208.903 595.371 209.234 595.712 209.65 595.968C210.076 596.224 210.556 596.352 211.09 596.352ZM220.724 598.192C219.86 598.192 219.108 597.979 218.468 597.552C217.828 597.125 217.375 596.549 217.108 595.824L218.292 595.248C218.538 595.76 218.874 596.165 219.3 596.464C219.727 596.763 220.202 596.912 220.724 596.912C221.194 596.912 221.583 596.8 221.892 596.576C222.202 596.352 222.356 596.059 222.356 595.696C222.356 595.44 222.282 595.237 222.132 595.088C221.994 594.928 221.823 594.805 221.62 594.72C221.418 594.624 221.231 594.555 221.06 594.512L219.764 594.144C218.986 593.92 218.415 593.6 218.052 593.184C217.7 592.768 217.524 592.283 217.524 591.728C217.524 591.216 217.652 590.773 217.908 590.4C218.175 590.016 218.532 589.717 218.98 589.504C219.439 589.291 219.951 589.184 220.516 589.184C221.274 589.184 221.951 589.376 222.548 589.76C223.156 590.144 223.588 590.683 223.844 591.376L222.628 591.936C222.436 591.488 222.148 591.136 221.764 590.88C221.38 590.613 220.948 590.48 220.468 590.48C220.031 590.48 219.684 590.592 219.428 590.816C219.172 591.029 219.044 591.301 219.044 591.632C219.044 591.877 219.108 592.08 219.236 592.24C219.364 592.389 219.519 592.507 219.7 592.592C219.882 592.667 220.058 592.731 220.228 592.784L221.636 593.2C222.34 593.403 222.884 593.717 223.268 594.144C223.663 594.571 223.86 595.083 223.86 595.68C223.86 596.16 223.727 596.592 223.46 596.976C223.194 597.36 222.826 597.659 222.356 597.872C221.887 598.085 221.343 598.192 220.724 598.192Z" fill="#747475"/>
<line x1="112" y1="485.5" x2="344" y2="485.5" stroke="#303031"/>
<line x1="88" y1="87.5" x2="368" y2="87.5" stroke="#303031"/>
<path d="M146.545 29L144.827 32.7912L141.091 34.5145L144.827 36.2515L146.545 40.029L148.25 36.2515L152 34.5145L148.25 32.7912M132.909 33.1359L129.5 40.7183L122 44.1648L129.5 47.6114L132.909 55.1938L136.318 47.6114L143.818 44.1648L136.318 40.7183M146.545 48.3007L144.827 52.0781L141.091 53.8152L144.827 55.5385L146.545 59.3297L148.25 55.5385L152 53.8152L148.25 52.0781" fill="url(#paint0_linear_20_499)" fill-opacity="0.98"/>
<path d="M163.63 44.7C163.63 43.464 163.906 42.36 164.458 41.388C165.022 40.404 165.784 39.642 166.744 39.102C167.716 38.55 168.802 38.274 170.002 38.274C171.406 38.274 172.636 38.634 173.692 39.354C174.748 40.074 175.486 41.07 175.906 42.342H173.008C172.72 41.742 172.312 41.292 171.784 40.992C171.268 40.692 170.668 40.542 169.984 40.542C169.252 40.542 168.598 40.716 168.022 41.064C167.458 41.4 167.014 41.88 166.69 42.504C166.378 43.128 166.222 43.86 166.222 44.7C166.222 45.528 166.378 46.26 166.69 46.896C167.014 47.52 167.458 48.006 168.022 48.354C168.598 48.69 169.252 48.858 169.984 48.858C170.668 48.858 171.268 48.708 171.784 48.408C172.312 48.096 172.72 47.64 173.008 47.04H175.906C175.486 48.324 174.748 49.326 173.692 50.046C172.648 50.754 171.418 51.108 170.002 51.108C168.802 51.108 167.716 50.838 166.744 50.298C165.784 49.746 165.022 48.984 164.458 48.012C163.906 47.04 163.63 45.936 163.63 44.7ZM180.542 38.436V46.212C180.542 47.064 180.764 47.718 181.208 48.174C181.652 48.618 182.276 48.84 183.08 48.84C183.896 48.84 184.526 48.618 184.97 48.174C185.414 47.718 185.636 47.064 185.636 46.212V38.436H188.174V46.194C188.174 47.262 187.94 48.168 187.472 48.912C187.016 49.644 186.398 50.196 185.618 50.568C184.85 50.94 183.992 51.126 183.044 51.126C182.108 51.126 181.256 50.94 180.488 50.568C179.732 50.196 179.132 49.644 178.688 48.912C178.244 48.168 178.022 47.262 178.022 46.194V38.436H180.542ZM201.355 51H198.835L193.129 42.378V51H190.609V38.418H193.129L198.835 47.058V38.418H201.355V51ZM213.116 45.798C213.116 46.158 213.092 46.482 213.044 46.77H205.754C205.814 47.49 206.066 48.054 206.51 48.462C206.954 48.87 207.5 49.074 208.148 49.074C209.084 49.074 209.75 48.672 210.146 47.868H212.864C212.576 48.828 212.024 49.62 211.208 50.244C210.392 50.856 209.39 51.162 208.202 51.162C207.242 51.162 206.378 50.952 205.61 50.532C204.854 50.1 204.26 49.494 203.828 48.714C203.408 47.934 203.198 47.034 203.198 46.014C203.198 44.982 203.408 44.076 203.828 43.296C204.248 42.516 204.836 41.916 205.592 41.496C206.348 41.076 207.218 40.866 208.202 40.866C209.15 40.866 209.996 41.07 210.74 41.478C211.496 41.886 212.078 42.468 212.486 43.224C212.906 43.968 213.116 44.826 213.116 45.798ZM210.506 45.078C210.494 44.43 210.26 43.914 209.804 43.53C209.348 43.134 208.79 42.936 208.13 42.936C207.506 42.936 206.978 43.128 206.546 43.512C206.126 43.884 205.868 44.406 205.772 45.078H210.506ZM217.889 43.098V47.922C217.889 48.258 217.967 48.504 218.123 48.66C218.291 48.804 218.567 48.876 218.951 48.876H220.121V51H218.537C216.413 51 215.351 49.968 215.351 47.904V43.098H214.163V41.028H215.351V38.562H217.889V41.028H220.121V43.098H217.889ZM235.757 41.028L232.841 51H230.123L228.305 44.034L226.487 51H223.751L220.817 41.028H223.373L225.137 48.624L227.045 41.028H229.709L231.581 48.606L233.345 41.028H235.757ZM241.549 51.162C240.589 51.162 239.725 50.952 238.957 50.532C238.189 50.1 237.583 49.494 237.139 48.714C236.707 47.934 236.491 47.034 236.491 46.014C236.491 44.994 236.713 44.094 237.157 43.314C237.613 42.534 238.231 41.934 239.011 41.514C239.791 41.082 240.661 40.866 241.621 40.866C242.581 40.866 243.451 41.082 244.231 41.514C245.011 41.934 245.623 42.534 246.067 43.314C246.523 44.094 246.751 44.994 246.751 46.014C246.751 47.034 246.517 47.934 246.049 48.714C245.593 49.494 244.969 50.1 244.177 50.532C243.397 50.952 242.521 51.162 241.549 51.162ZM241.549 48.966C242.005 48.966 242.431 48.858 242.827 48.642C243.235 48.414 243.559 48.078 243.799 47.634C244.039 47.19 244.159 46.65 244.159 46.014C244.159 45.066 243.907 44.34 243.403 43.836C242.911 43.32 242.305 43.062 241.585 43.062C240.865 43.062 240.259 43.32 239.767 43.836C239.287 44.34 239.047 45.066 239.047 46.014C239.047 46.962 239.281 47.694 239.749 48.21C240.229 48.714 240.829 48.966 241.549 48.966ZM251.119 42.576C251.443 42.048 251.863 41.634 252.379 41.334C252.907 41.034 253.507 40.884 254.179 40.884V43.53H253.513C252.721 43.53 252.121 43.716 251.713 44.088C251.317 44.46 251.119 45.108 251.119 46.032V51H248.599V41.028H251.119V42.576ZM261.781 51L258.397 46.752V51H255.877V37.68H258.397V45.258L261.745 41.028H265.021L260.629 46.032L265.057 51H261.781Z" fill="white"/>
<defs>
<linearGradient id="paint0_linear_20_499" x1="137" y1="29" x2="137" y2="59.3297" gradientUnits="userSpaceOnUse">
<stop stop-color="#8D5BF7"/>
<stop offset="1" stop-color="#2F8ADE" stop-opacity="0.67"/>
</linearGradient>
</defs>
</svg>
